<?xml version="1.0" encoding="utf-8"?>
<!-- Generator: Adobe Illustrator 24.1.1, SVG Export Plug-In . SVG Version: 6.00 Build 0)  -->
<svg version="1.1" id="Capa_1" xmlns="http://www.w3.org/2000/svg" xmlns:xlink="http://www.w3.org/1999/xlink" x="0px" y="0px"
	 viewBox="0 0 1920 1080" style="enable-background:new 0 0 1920 1080;" xml:space="preserve">
<style type="text/css">
	.st0{fill:#E9DCE5;}
	.st1{fill:#FDDFDF;}
	.st2{fill:#6D6DA9;}
	.st3{fill:#D2D2E4;}
	.st4{fill:#D2D2E5;}
	.st5{fill:#D1D1E4;}
	.st6{fill:#FCDEDE;}
	.st7{fill:#DFB591;}
	.st8{fill:#D3D3E6;}
	.st9{fill:#D5D5E5;}
	.st10{fill:#D5D5E6;}
	.st11{fill:#D3D2E4;}
	.st12{fill:#CECAC7;}
	.st13{fill:#CFC8CB;}
	.st14{fill:#D2D1E3;}
	.st15{fill:#D2C6CA;}
	.st16{fill:#E7D7E0;}
	.st17{fill:#D2C2CC;}
	.st18{fill:#EFEFF6;}
	.st19{fill:#D2D1E2;}
	.st20{fill:#C3A396;}
	.st21{fill:#F2D8B6;}
	.st22{fill:#CAB9B2;}
	.st23{fill:#F1D8B6;}
	.st24{fill:#E6BA8F;}
	.st25{fill:#D2CEC4;}
	.st26{fill:#FBF6CF;}
	.st27{fill:#F2D9B7;}
	.st28{fill:#F1D8B7;}
	.st29{fill:#FCF7CF;}
	.st30{fill:#CBB9B3;}
	.st31{fill:#FCF7D0;}
	.st32{fill:#CBB9B2;}
	.st33{fill:#F9F4CD;}
	.st34{fill:#FAF5CF;}
	.st35{fill:#CCBAB3;}
	.st36{fill:#D0CCC4;}
	.st37{fill:#F0D8B8;}
	.st38{fill:#FBF5CE;}
	.st39{fill:#FAF5CE;}
	.st40{fill:#D1CDC5;}
	.st41{fill:#E4B990;}
	.st42{fill:#D2CEC5;}
	.st43{fill:#E5B990;}
	.st44{fill:#CAB8B2;}
	.st45{fill:#D1CDC4;}
	.st46{fill:#E3B890;}
	.st47{fill:#F2D8B7;}
	.st48{fill:#F0D7B7;}
	.st49{fill:#E2B790;}
	.st50{fill:#D0CAC1;}
	.st51{fill:#F1D7B7;}
	.st52{fill:#F2E1C0;}
	.st53{fill:#C8B7B2;}
	.st54{fill:#C1A299;}
	.st55{fill:#CDBAB3;}
	.st56{fill:#F2E2BF;}
	.st57{fill:#C0A197;}
	.st58{fill:#EDD2B2;}
	.st59{fill:#F2DAB8;}
	.st60{fill:#C5A597;}
	.st61{fill:#F9F4CE;}
	.st62{fill:#CDC3BC;}
	.st63{fill:#ECD4B6;}
	.st64{fill:#EFD6B6;}
	.st65{fill:#D0CCC2;}
	.st66{fill:#C7B5B2;}
	.st67{fill:#F1DAB8;}
	.st68{fill:#F2E8C8;}
	.st69{fill:#DEB693;}
	.st70{fill:#F1D9B8;}
	.st71{fill:#CECAC2;}
	.st72{fill:#E1B78F;}
	.st73{fill:#EED5B5;}
	.st74{fill:#BDA7A4;}
	.st75{fill:#CDC9C3;}
	.st76{fill:#E4BA92;}
	.st77{fill:#EEEACC;}
	.st78{fill:#F6F2CE;}
	.st79{fill:#F7F2CC;}
	.st80{fill:#E7C7A5;}
	.st81{fill:#C2B2B2;}
	.st82{fill:#F4EFCB;}
	.st83{fill:#C8BAB5;}
	.st84{fill:#C1A298;}
	.st85{fill:#ECE7C9;}
	.st86{fill:#C1B1B0;}
	.st87{fill:#ECD5B6;}
	.st88{fill:#F3EECD;}
	.st89{fill:#E7F9E4;}
	.st90{fill:#EEFAED;}
	.st91{fill:#EFFBEE;}
	.st92{fill:#D2C5CA;}
	.st93{fill:#F0FBEF;}
	.st94{fill:#EFFAEE;}
	.st95{fill:#C9CECC;}
	.st96{fill:#C7CFD0;}
	.st97{fill:#EFEBCC;}
	.st98{fill:#F1F1F6;}
	.st99{fill:#DFEFE1;}
	.st100{fill:#FDF8CF;}
	.st101{fill:#CBCFCD;}
	.st102{fill:#F8F3CE;}
	.st103{fill:#F5F0CC;}
	.st104{fill:#E6CFB5;}
	.st105{fill:#E5CEB6;}
	.st106{fill:#D1D2E2;}
	.st107{fill:#F2EDCB;}
	.st108{fill:#EBD3B6;}
	.st109{fill:#F9FAFE;}
	.st110{fill:#F7F9FE;}
	.st111{fill:#F1FBF0;}
	.st112{fill:#FDEDCF;}
	.st113{fill:#FEFAF2;}
	.st114{fill:#D2D3E4;}
	.st115{fill:#D3D4E5;}
	.st116{fill:#D4D5E5;}
	.st117{fill:#D0D2E1;}
</style>
<g>
	<path class="st0" d="M854.06,434.8c0.5,0.94,0.85,1.91,0.76,3c1.46,1.88,1.29,3.95,0.65,6.04c-0.31,1-0.99,1.76-2.15,1.76
		c-1.16,0-1.84-0.76-2.15-1.76c-0.65-2.08-0.81-4.16,0.65-6.04c-0.09-1.09,0.26-2.06,0.75-3C853.06,434.8,853.56,434.8,854.06,434.8
		z"/>
	<path class="st1" d="M851.8,437.8c0.02,1.85,0.01,3.7,0.08,5.55c0.03,0.78,0.42,1.51,1.25,1.61c1.09,0.13,1.56-0.69,1.6-1.61
		c0.09-1.85,0.06-3.7,0.08-5.55c15.3-0.05,28.14,5.72,39.12,16.19c3.73,3.56,6.6,8.19,11.81,10.02c0.47,1.63-0.77,2.51-1.62,3.51
		c-1.89,2.21-3.1,4.56-1.71,7.47c1.43,2.98,3.57,5.25,7.1,5.16c8.17-0.2,16.38,0.98,24.49-0.77c0.62-0.13,1.23-0.07,1.74,0.38
		c7.24,6.02,10.84,14.12,12.69,23.02c2.3,11.04,0.17,21.54-5.38,31.22c-4.33,7.56-4.98,15.4-3.44,23.74
		c2.24,12.11-1.23,22.96-8.45,32.51c-6.15,8.14-14.43,13.46-24.51,15.81c-1.62,0.38-3.21,0.29-4.81,0.45
		c-1.39,0.47-2.73,1.13-4.17,1.48c-1.11,0.12-2.2,0.13-3.15-0.6c-0.58-1.3,0.13-2.15,1.04-2.92c4.38-1.39,4.86-4.81,4.48-8.67
		c0.49-1.33,2.02-1.31,3.21-2.41c-2.64-0.85-2.39-2.35-1.79-4.56c1.81-6.66,6.57-9.52,12.75-10.88c3.2-0.55,6.47,0.12,9.96-0.68
		c-4.3-0.57-4.63-3.45-4.43-6.73c0.21-3.44-0.63-7.03,1.59-10.16c0.28-0.39,0.25-0.86-0.06-1.37c-2.61-4.33-2.03-8.76-0.12-13.11
		c0.5-1.15,0.03-1.69-0.5-2.6c-1.42-2.46-0.56-4.06,2.27-4.42c2.35-0.3,4.74-0.04,7.1-0.15c4.4-0.2,6.79-2.32,7.69-6.69
		c0.61-2.95,1.74-5.53,0.37-8.96c-1.17-2.95-1.06-6.9,0.97-10.12c0.38-0.61,0.83-1.36,0.06-2.01c-1.44-1.2-1.2-2.91-1.49-4.48
		c-0.54-2.95-2.44-4.63-5.04-4.53c-2.59,0.1-4.53,1.89-4.71,4.88c-0.35,5.85-0.05,11.72-0.15,17.58c-0.04,2.15-0.41,3.97-3.11,4.27
		c-3.26,0.35-4.72-0.69-4.8-4.03c-0.08-2.95-0.62-6.02,1.27-8.71c0.35-0.5,0.71-1.11,0.34-1.72c-2.84-4.58-2.12-9.1-0.12-13.77
		c0.97-2.27-3.8-9.42-6.55-10.25c-3.2-0.96-6.53,1.29-7.8,5.28c-0.84,2.65-2.02,4.86-0.67,8.16c1.22,2.99,1.62,7.1-0.98,10.3
		c-0.63,0.77-0.23,1.41,0.15,2.03c2.03,3.22,1.2,6.78,1.19,10.22c-0.01,1.97-1.09,2.97-3.14,2.77c-2.75-0.99-3.65-3.41-4.54-5.84
		c-0.36-2.2-0.1-4.43-0.25-6.64c-0.24-3.44-1.97-5.44-4.74-5.54c-2.67-0.1-4.45,1.56-5.12,4.78c-0.27,1.3-0.11,2.76-1.5,3.6
		c-3.83,0.58-7.7,1.63-11.27-0.92c-0.59-0.67-0.74-3.19-2.17-0.64c-1.31,2.34-3.18,2.51-5.42,1.85c-4.65-1.36-9.49-2.11-13.86-4.36
		c-1.48-2.26-0.34-4.91-1.14-7.59c-1.16,0.47-0.96,2.08-2.06,2.34c-1.31-0.07-2.17,0.26-1.96,1.86c0.33,2.44-1.15,3.61-3.19,4.39
		c-3.14,1.19-6.14,2.72-9.3,3.85c-1.1,0.39-2.48,1.34-3.3-0.19c-0.71-1.33,0.55-2.25,1.33-3.19c0.71-0.85,1.89-1.18,2.45-2.23
		c-3.11,0.36-4.99,2.1-6.27,6.04c-0.78,2.39-1.54,4.74-3.76,6.24c-1.29,0.44-2.48,1.05-3.58,1.88c-1.19,0.89-2.47,1.06-3.78,0.23
		c-2.93,1.09-1.2,4.04-2.34,5.84c-0.89,1.6-1.92,3.11-2.99,4.6c-0.5,0.69-0.95,1.91-2.24,0.99c-0.72-1.12-0.47-2.41-0.69-3.62
		c-0.52-2.76,2.44-5.44,1.43-7.34c-1.37-2.58-1.26-4.97-1.39-7.51c-0.1-2,0.18-3.89,1.18-5.77c1.3-2.44-2.87-9.7-5.97-10.77
		c-3.2-1.11-6.7,1.01-7.95,4.98c-0.87,2.75-2.07,5.15-0.7,8.55c1.16,2.89,1.5,6.9-0.92,9.99c-0.61,0.78-0.46,1.39-0.04,2.01
		c2.01,2.94,1.31,6.25,1.32,9.46c0,2.57-1.57,3.43-3.92,3.42c-2.35-0.01-3.86-0.88-3.93-3.44c-0.16-5.12-0.03-10.23-0.07-15.35
		c-0.01-1.37,0.08-2.76-0.27-4.1c-0.65-2.48-2.28-3.87-4.86-3.83c-2.41,0.04-3.95,1.39-4.58,3.7c-0.51,1.87-0.05,4.04-1.85,5.52
		c-0.58,0.48-0.02,1.15,0.21,1.7c1.82,4.41,2.43,8.8-0.12,13.16c-0.13,0.22-0.37,0.5-0.27,0.65c1.99,2.92,1.21,6.89,3.73,9.63
		c2.1,2.28,4.76,2.47,7.56,2.42c1.75-0.03,3.5-0.13,5.24,0.1c2.8,0.38,3.79,2.06,2.34,4.41c-0.67,1.09-0.86,1.7-0.37,2.93
		c1.68,4.26,2.28,8.61-0.23,12.82c-0.4,0.66-0.28,1.18,0.04,1.72c2.43,4.07,1.21,8.52,1.26,12.82c0.01,1.23-0.21,2.96-2.37,2.13
		c-3-6.67-7.37-12.03-14.08-15.34c-11.41-5.62-16.48-15.89-19.22-27.47c-3.69-15.58,0.94-28.97,11.95-40.27
		c3.68-3.78,8.6-5.86,12.97-8.71c1.1-0.72,2.54-1.16,3.13-2.56c1.42-1.46,3.26-0.99,4.96-1.04c2.87-0.09,5.75,0.06,8.62-0.07
		c8.78-0.4,14.73-8.22,9.78-18.13c-0.29-0.57-0.66-1.11-1.23-1.37c-5.05-2.38-4.6-7.53-5.96-11.77c-0.06-0.19,0.18-0.44,0.36-0.63
		c2.85-2.57,4.71-5.98,7.43-8.7c4.35-4.36,9.71-7.21,14.52-10.83c3.19-2.4,6.53-2.74,9.92-3.78
		C843.49,438.76,847.65,438.33,851.8,437.8z"/>
	<path class="st2" d="M826.18,620.61c0.29-0.47,0.57-0.94,0.86-1.41c0.7-2.46,3.5-3.53,4.03-6.11c0.45-2.48,0.11-4.99,0.21-7.48
		c-0.04-1.56-0.01-3.13-0.04-4.68c0.05-2.24-1.91-2.4-3.28-2.99c-2.39-1.03-4.98-1.56-7.34-2.69c-1.47-0.7-2.91-1.48-3.64-3.05
		c-0.61-1.31-0.69-2.68,0.26-3.87c1.27-1.58,2.36-0.21,4.15,0.66c-3.9-8.3-2.25-16.14-0.23-23.98c1.76-2.23,4.28-1.27,6.51-1.54
		c1.05-0.13,2.43,0.24,2.76-1.21c0.3-1.33-0.76-1.96-1.79-2.44c-2.32-1.07-4.14-2.61-5.08-5.06c-0.16-1.98,0.05-3.61,2.73-2.94
		c1.17,0.55,1.8,1.91,3.32,2.38c0.37-1.94-0.54-3.54-0.5-5.21c-0.1-0.84-0.32-1.66-0.64-2.45c-0.66-2.37-4.01-3.38-3.27-6.45
		c1.18-1.58,2.58-1.18,4.01-0.43c0.73,0.46,1.22,1.25,1.98,1.65c1.27,0.66,1.03-0.36,1.04-1.06c-0.18-1.07-0.54-2.08-0.74-3.14
		c-0.14-0.79-0.21-1.59-0.19-2.4c0.03-1.85-0.23-3.73,0.19-5.53c0.48-2.07,1.51-3.49,3.9-1.93c0.71,0.81,0.83,1.81,0.89,2.83
		c0.3,2.5-1.32,6.16,1.1,7.17c1.86,0.77,3.66-2.79,5.4-4.48c1.93-1.89,4.31-3.46,5.25-6.22c0.13-0.36,0.29-0.71,0.47-1.05
		c3.65-5.15,8.49-6.12,14.84-3.01c1.1,0.9,1.46,2.08,0.77,3.31c-0.76,1.35-2.12,1.07-3.34,0.75c-2.17-0.56-4.32-1.27-6.77,0.28
		c2.43,0.76,4.69,1.16,6.91,1.72c2.65,0.82,5.59,0.7,7.96,2.43c0.83,0.89,0.97,1.85,0.32,2.9c-2.67,1.63-5.29,0.19-7.93-0.12
		c-1.99-0.6-4.02-1.08-6.07-1.44c-2.99-1.4-5.17,0-7.16,2.07c-2.38,2.54-4.72,5.1-7.27,7.47c-1.47,1.26-3.26,2.16-4.59,3.76
		c1.46,0.93,2.62,0.27,3.77-0.06c1.34-0.39,2.53-0.3,3.16,1.09c0.69,1.53-0.09,2.62-1.34,3.46c-1.18,0.79-2.55,1.16-3.91,0.97
		c-2.86-0.41-4,0.52-3.15,3.43c0.14,0.47,0.08,0.99,0.1,1.48c0.01,1.61,0.55,3.14,0.73,4.73c0.1,0.89,0.52,1.36,1.47,0.9
		c1.36-0.75,1.89-2.09,2.41-3.43c0.64-1.11,1.19-2.33,2.8-2.17c0.55,0.27,0.93,0.69,1.18,1.24c0.64,2.03,0.31,3.94-0.73,5.76
		c-2.06,2.82-5.05,4.17-8.24,5.2c-2.95,0.43-5.93-1.58-8.85,0.09c-1.37,3.01,0.34,3.21,2.63,2.89c1.28,0.05,2.26,0.47,2.43,1.91
		c0,0.81-0.35,1.47-0.89,2.04c-0.86,0.75-1.89,1.4-2.98,1.42c-3.47,0.07-3.41,2.04-2.61,4.5c0.35,2.2,0.88,4.35,1.51,6.62
		c1.16-1.79-0.51-5.85,3.91-4.76c1.18,0.88,1.4,2.15,1.45,3.5c0.06,1.78-0.7,3.34-1.29,4.95c-0.26,0.7-0.4,1.62,0.54,1.84
		c1.06,0.24,1.05-0.75,1.13-1.45c0.11-0.98,0.12-1.97,0.36-2.93c0.51-2.56,0.37-5.21,1.04-7.75c0.14-1.34,0.44-2.62,1.12-3.8
		c0.69-1.11,1.65-1.98,2.53-2.92c2.21-2.17,4.3-4.47,6.6-6.53c2.5-2.24,3.77-4.85,3.3-8.22c-0.01-1.13,0.05-2.26,0.3-3.36
		c0.51-1.46,0.37-2.99,0.41-4.5c0.37-2.86-1.89-4.99-2.14-7.68c0.08-2.23,0.45-4.15,3.46-2.97c0.83,0.43,0.6,1.71,1.34,1.98
		c0.39,0.14,0.5-0.93,0.76-1.43c0.35-1,0.39-2.04,0.37-3.08c0-0.99,0.03-1.97,0.37-2.91c0.82-1.53,1.95-2.23,3.67-1.41
		c0.47,0.48,0.7,1.07,0.82,1.72c0.13,1.87,0.21,3.75-0.04,5.62c-0.78,2.88-2.17,5.54-3.17,8.34c-0.49,3.74-0.68,7.51-1.15,11.25
		c0,1.15-0.06,2.29-0.31,3.41c-0.49,1.74-1.66,3.02-2.82,4.35c-0.69,0.79-2.22,1.37-1.63,2.62c0.49,1.04,1.99,0.8,3.07,1.01
		c1.6,0.29,2.05-0.86,2.63-1.99c1.78-3.48,3.26-7.1,4.82-10.68c0.41-0.95,0.53-1.95,0.48-2.98c-0.03-0.36-0.05-0.71-0.06-1.07
		c-0.28-2.21-0.89-4.36-1.3-6.55c0.01-2.27-1.59-4.67,0.49-6.79c0.5-0.33,1.05-0.44,1.64-0.38c0.36,0.08,0.71,0.22,1,0.46
		c1.2,0.99,0.97,3.4,3.09,3.38c2.18-0.01,4.07-1.07,5.86-2.24c1.05-0.69,1.83-1.69,2.84-2.44c1.06-0.68,2.15-1.01,3.32-0.25
		c1.2,1.93,0.31,3.45-0.97,4.89c-3.2,2.99-7.32,4.2-11.24,5.77c-0.43,1.45,0.53,1.65,1.56,1.71c1.14,0.06,2.13,0.33,2.73,1.42
		c0.73,2.14-0.22,3.61-1.92,4.76c-1.02,0.69-2.26,1.1-2.87,2.29c-1.87,3.78-3.65,7.61-5.27,11.49c-0.32,1.11-0.13,1.78,1.22,1.98
		c1.69,0.25,2.92,1.07,2.63,3.1c-3.27,3.6-6.24,1.12-9.26-0.43c-1.11-0.67-2.38-0.61-3.59-0.82c-3.04-0.85-6.07-1.62-8.43,1.47
		c-0.87,1.64-3.13,3.54,0.84,4.22c2.9,0.05,5.79,0.01,8.64-0.63c1.33-0.18,2.69-0.06,3.98-0.51c1.83-0.34,3.69-0.52,5.52-0.89
		c1.69-0.34,2.72-1.15,2.76-2.95c-0.06-0.9-0.3-1.79-0.22-2.7c0.16-3.18-0.33-6.44,0.99-9.49c0.63-1.46,1.19-3.26,3.19-3.08
		c2.15,0.2,1.79,2.17,1.91,3.73c1.35-0.68,2.32-1.65,3.47-2.35c1.69-0.98,2.95-1.84,0.52-3.61c-2.3-1.66-2.96-4.1-2.01-6.86
		c1.8-1.83,3.01-0.76,4.02,0.88c0.68,1.11,0.98,2.55,2.57,2.77c0.54-0.15,0.96-0.52,0.95-1.02c-0.06-6.29,0.62-12.59-0.38-18.85
		c-1.29-1.35-3.33-1.71-4.42-3.32c-0.46-0.68-0.75-1.43-0.86-2.25c-0.03-1.24-0.01-2.53,1.46-2.95c1.66-0.47,2.24,1.05,3.14,1.94
		c0.19,0.15,0.37,0.39,0.58,0.43c4.9,0.81,6.23,4,5.67,8.46c-0.08,1.06,0.06,2.11,0,3.17c-0.08,1.51,0.1,3.01,0.01,4.52
		c-0.1,2.39,0.1,4.78,0.03,7.17c-0.34,2.49,0.39,5.08-0.72,7.49c-1.88,2.13-4.41,3.44-6.61,5.17c-2.83,2.23-6.29,3.66-8.42,6.75
		c-0.18,0.81-0.19,1.62-0.19,2.44c0.04,0.57-0.1,1.15,0.05,1.83c1.44-0.99,2.32-2.34,3.16-3.75c0.79-1.19,1.77-1.93,3.3-1.4
		c2.13,1.72,0.78,3.43,0,5.15c-1.44,2.58-3.75,4.24-6.15,5.8c-3.42,2.07-7.36,1.78-11.09,2.51c-5.35,0.73-10.69,1.47-16.08,1.81
		c-0.84,0.28-1.59,0.67-1.98,1.54c-0.6,1.59-0.26,3.23-0.32,4.84c-0.03,1.38,0.07,2.77,0.01,4.15c0,1,0.06,2.01,0,3.01
		c0.01,1.35,0.02,2.7-0.02,4.05c-0.14,5.25-0.13,5.28,4.96,3.8c1.9-0.55,3.9-0.9,5.55-2.09c0.12-1.18-0.92-1.61-1.5-2.33
		c-1.49-1.61-3.2-3.02-4.52-4.8c-0.4-0.61-0.75-1.24-1.07-1.89c-0.86-1.82-1.06-3.71-0.66-5.67c0.47-1.43,1.37-2.44,2.83-2.9
		c0.77-0.17,1.53-0.13,2.24,0.25c1.29,1.2,0.53,2.46,0.13,3.73c-0.26,0.84-0.51,1.74,0.37,2.33c0.67,0.46,1.44,0.15,2.11-0.16
		c1.8-0.83,3.45-1.86,4.73-3.41c0.86-1.04,1.6-2.19,2.99-2.62c0.35-0.07,0.7-0.09,1.05-0.04c2.53,0.96,1.9,2.64,0.76,4.15
		c-1.58,2.09-3.44,3.95-5.66,5.4c-1.04,0.67-3,1.06-1.1,2.84c1.2,1.12,2.44,3.21,4.2,0.93c2.82-3.64,6.52-6.57,8.67-10.75
		c0.63-1.44,0.79-3.04,1.58-4.42c1.31-2.16,2.43-4.46,4.66-5.89c2.34-1.02,4.2-4.17,7.35-1.68c0.74,1.86-0.61,2.7-1.8,3.57
		c-1.68,1.23-3.49,2.3-5.09,4.84c2.64-0.96,4.41-2.18,6.37-2.88c1.43-0.63,3.42-0.8,2.66-3.23c-0.18-0.68-0.35-1.36-0.48-2.06
		c-0.62-1.79-0.49-3.73-1.08-5.53c-0.76-3.42,1.52-4.75,4.06-5.9c4.3-1.34,5.96-4.24,5.43-8.7c-0.39-3.28,0.41-6.63-0.47-9.9
		c-0.74-1.77-1.83-3.38-2.37-5.24c-0.29-1.54-0.9-3.02-0.86-4.62c0.01-1.01,0.24-1.99,0.74-2.86c0.89-1.54,2.13-2.59,3.98-1.87
		c1.73,0.67,1.2,2.18,0.96,3.54c-0.79,4.58-0.41,4.98,4.08,4.43c1.38-0.17,3.03-0.41,3.49,1.26c0.71,2.55-1.66,2.94-3.19,3.84
		c-1.81,0.95-1.3,2.68-1.4,4.2c0.03,3.12-0.03,6.24,0.04,9.52c1.31-1.1,2.7-2.44,4.18-0.91c1.5,1.54,0.66,3.31-0.44,4.74
		c-1.49,1.93-3.7,2.91-5.79,4.03c-7.38,3.43-7.38,3.43-6.19,11.47c0.07,0.49,0.25,0.96,0.34,1.45c0.57,2.31-0.61,3.79-2.4,4.95
		c-2.82,1.82-5.72,3.52-8.87,4.67c-2.87,1.05-5.32,2.62-7.34,4.88c-0.73,0.83-1.75,1.42-2.05,2.63c0.84,1.06,2.05,0.57,3.1,0.71
		c0.71-0.01,1.41,0,2.12,0.08c3.89,0.88,7.72,1.44,10.97-1.72c1.24-1.82,4.58-1.96,4.07-5.16c-1.25-2.11-1.51-4.33-0.78-6.66
		c0.88-1.39,1.89-1.14,2.96-0.25c0.93,1.32,1.48,2.75,1.4,4.13c0.7-2.02,0.31-4.48,0.69-6.85c0.93-3.99,0.85-8.5,5.41-10.64
		c1.36-0.77,2.8-1.42,4.03-2.41c2.4-1.61,0.51-3.52,0.36-5.3c-0.21-0.92-0.29-1.85-0.29-2.8c-0.04-2.65-0.03-5.29,0.89-7.83
		c0.27-0.78,0.69-1.47,1.29-2.04c3.16-0.97,4.22-0.2,3.55,2.89c-0.55,2.56-0.89,5.1-0.66,7.69c0.13,1.43,0.06,3.01,1.54,3.92
		c1.78-0.22,4.03-1.11,4.47,1.58c0.38,2.31-1.29,3.52-3.46,3.96c-0.72,0.15-1.46,0.18-2.16,0.39c-0.98,0.31-1.86,0.82-2.7,1.4
		c-1.26,0.75-2.48,1.56-3.68,2.39c-1.03,0.74-2.2,1.31-2.77,2.55c-0.65,2.66-0.36,5.47-1.61,8.48c1.22-1.29,1.68-2.48,2.29-3.57
		c0.57-1.02,1.23-2.02,2.59-1.62c1.54,0.45,1.49,1.81,1.41,3.08c-0.06,0.88-0.39,1.69-0.79,2.47c-3,5.37-8.2,8.37-12.84,11.98
		c-1.72,1.09-2.94,2.75-4.52,4.01c-2.47,1.84-5.31,1.62-8.14,1.48c-2.46-0.68-4.99-0.68-7.51-0.67c-2.17,0.38-4.64-1.78-6.53,0.78
		c0.84,2.31,2.86,1.52,4.45,1.61c1.3,0.07,2.6-0.65,3.96-0.18c0.37,0.16,0.65,0.41,0.86,0.75c0.47,1.36-0.01,2.41-1.04,3.29
		c-3.16,1.92-6.4,1.33-9.65,0.29c-2.69-1.35-5.37-1.36-8.22-0.28c-3.34,1.27-6.85,2.05-10.29,3.04c-3.67,0.66-4.92,4.16-7.36,6.27
		C828.2,622.74,826.1,624.12,826.18,620.61z"/>
	<path class="st3" d="M796.31,590.65c0.35-0.11,1-0.22,1.01-0.35c0.23-4.92,2.18-10.03-1.36-14.59c-0.64-0.82-1.56-1.75-0.29-2.44
		c1.14-0.62,2.61-0.49,2.2-2.51c-0.65-3.18,1.28-6.77-1.5-9.64c-1.05-1.09-2.53-2.45,0.13-3.12c1.2-0.3,1.36-0.65,1.32-1.63
		c-0.05-1.32-0.83-1.66-1.99-1.66c-2.5,0.02-5,0.02-7.49,0c-5-0.05-8.29-2.99-8.42-7.98c-0.06-2.22-1.59-3.22-2.54-4.76
		c-1.68-2.74,3.1-1.13,2.54-3.67c-0.82-3.71,1.46-8.07-2.44-11.16c-0.71-0.56-0.52-1.79,0.18-1.85c2.98-0.22,2.06-2.34,2.21-4.01
		c0.3-3.33,2.66-5.52,5.91-5.54c3.4-0.03,5.94,2.26,6.02,5.8c0.13,5.87,0.11,11.74,0,17.61c-0.04,2.34,0.26,3.69,3.17,3.66
		c2.82-0.03,3.02-1.48,2.86-3.56c-0.23-3.12,0.98-6.58-2.25-8.97c-0.66-0.49-0.86-1.7-0.06-1.86c3.93-0.79,2.04-3.8,2.24-5.84
		c0.23-2.4,0.63-4.98-1.78-6.88c-1.45-1.14-1.46-2.51,0.71-2.7c1.53-0.13,1.02-1.07,1.14-1.81c0.7-4.29,3.9-7.45,7.53-7.43
		c3.63,0.02,6.73,3.14,7.45,7.51c0.06,0.37-0.05,1.04,0.07,1.08c5.65,1.7,0.4,3.61,0.21,5.47c-0.32,3.09-0.23,6.22-0.22,9.34
		c0,1.19,1.12,0.57,1.71,0.84c0.93,0.42,1.57,1.33,0.68,2.03c-3.66,2.87-2.12,6.84-2.42,10.42c1.14,2.29-0.15,4.22-1,6.16
		c-0.44,1.01-1.37,1.33-2.36,0.46c-0.91-1.46-0.74-3.09-0.75-4.71c-0.05-9.32-0.08-18.64,0-27.96c0.02-2.62-0.13-5.36-3.44-6.24
		c-3.48,0.59-3.22,3.41-3.27,5.81c-0.16,8.57-0.04,17.14-0.07,25.72c-0.01,1.85,0.19,3.75-0.76,5.47c-3.39,2.85-7.29,1.81-10.96,1.1
		c-2.32-0.45-2.5-2.87-2.5-4.89c-0.01-5.58-0.1-11.15-0.03-16.73c0.02-1.33,0.39-2.75-0.71-3.87c-2.33-1.22-3.02,0.28-3.04,2.1
		c-0.06,7.83-0.21,15.66,0.08,23.48c0.05,1.47,0.37,2.99,1.91,3.81c3.57,0.76,7.18,0.37,10.77,0.48c2.76,0.09,4.92,0.89,5.12,4.14
		c0.3,9.7,0.24,19.41,0.06,29.12c-0.07,3.41,0.59,5.81,4.24,6.58c0.84,1.1,0.83,2.23,0.11,3.38c-2.83,1.52-5.64,1.34-8.42-0.12
		c-1.73-0.02-3.46,0-5.18-0.06c-1.04-0.04-2.1-0.34-1.98-1.64c0.09-1.01,1.03-1.28,1.95-1.31
		C793.85,590.68,795.08,590.67,796.31,590.65z"/>
	<path class="st2" d="M898.42,607.24c0.99-0.96,1.98-1.89,3.43-0.74c-1.08,4.38-4.48,7.38-9.01,7.39c-6.4,0.02-12.59,1.53-18.9,2.22
		c-2.26,0.25-3.46,1.58-4.62,3.7c3.55,0.37,6.7,0.4,9.84-0.42c1.42-0.37,3.02-1.13,3.46,1.25c-0.58,2.98-3.21,2.48-5.04,2.55
		c-8.16,0.31-16.33,0.01-24.43-1.17c-1.84-0.27-3.67-0.59-5.5-0.89c-3.13-0.32-6.25-1.81-9.4-0.1c-0.95,0.59-1.64,1.6-2.72,1.9
		c-1.63,0.45-3.58,1.26-3.76-1.69c2.12-4.68,6.68-6.79,12.72-5.85c5.55,0.86,11.12,1.55,16.67,2.41c1.84,0.28,3.63,0.21,4.83-1.28
		c3.23-4.01,7.77-4.62,12.41-5.1c12.45-1.49,10.29-0.49,14.37-10.27c2.36-5.64,4.88-11.22,7.31-16.83c0.96-2.21,2.06-4.56,4.25-5.55
		c4.44-2,3.96-6.11,2.95-8.95c-2.02-5.72-2.87-11.62-4.08-17.45c-0.95-4.55-2.91-8.16-6.62-10.86c-2.97-2.21-5.31-5.1-8.05-7.55
		c-1.85-2.27-4.21-3.27-7.15-3.04c-1.22,0.1-2.47,0.01-3.58-0.66c-1.04-0.88-1.39-1.95-0.82-3.24c1.27-1.37,3.02-1.48,4.69-1.78
		c1.45-0.16,1.56-1.46,2.04-2.45c0.7-1.22,1.62-1.96,3.12-1.45c2.35,9,10.65,13.1,15.94,20.01c0.15-2.91-5.23-4.21-1.33-7.49
		c2.33-0.36,3.63,1.12,4.89,2.69c1.62,2.61,2.49,5.34,1.25,8.38c-0.81,3.58-0.61,6.95,2.09,9.76c1.45-0.44,2.71-1.6,4.39-1.06
		c0.52,0.27,0.89,0.68,1.1,1.22c0.29,1.86-1.02,2.76-2.22,3.73c-2.16,1.39-2.65,3.41-2.2,5.8c0.53,2.78,1.04,5.57,1.65,8.34
		c0.19,0.78-0.04,1.56-0.13,2.77c0.47-1.91-0.03-3.4,0.12-4.89c0.35-1.76,1.34-2.58,3.17-2.19c2.42,1.46,1.59,3.75,1.52,5.86
		c-0.41,1.87-1.22,3.48-2.98,4.45c-0.54,0.32-1.05,0.86-1.61,0.91c-7.24,0.68-9.03,6.25-10.8,11.95c1.06,0.64,3.12-0.6,3.35,1.39
		c0.24,2.04-1.78,1.61-2.91,2.13c-0.55,0.25-1.07,0.54-1.61,0.82c-1.87,2.8-2.24,6.38-4.61,8.92c-0.4,0.78-0.79,1.55-1.19,2.33
		c0.24,0.59,0.07,1.18-0.01,2.15C896.07,608.58,897.16,607.73,898.42,607.24z"/>
	<path class="st2" d="M854.83,514.8c4.76,1.32,9.56,2.51,14.26,4.01c2.45,0.78,3.77,0.21,4.32-2.25c0.22-0.99,0.49-2.14,1.75-1.99
		c1.49,0.18,1.39,1.48,1.32,2.61c-0.65,1.49-0.35,2.58,1.27,3.21c1.14,0.44,2.3,0.91,2.83,2.17c0.04,0.38-0.01,0.74-0.17,1.08
		c-1.08,1.65-2.65,1.54-4.28,1.19c-2.17-0.47-4.31-1.02-6.43-1.67c-3.07-0.93-6.17-1.78-9.26-2.65c-6.16-2.51-12.18-2.71-18.19,0.65
		c-2.58,1.44-5.54,2.13-8.21,3.43c-1.88,0.78-2.65,2.52-3.54,4.16c-2.14,2.93-3.83,6.15-5.84,9.15c-0.83,1.2-1.15,2.55-1.11,4
		c-0.46,2.88-0.66,5.78-0.96,8.67c-0.72,2.73-0.53,5.8-2.89,7.94c-0.97,1.04-2.16,1.82-3.3,2.64c-0.91,0.71-1.74,1.49-2.37,2.47
		c-1.09,1.65-0.05,3.35-0.1,5.02c0.19-1.41,0.14-2.89,1.23-4.03c2.44-1.29,3.36,0.04,3.64,2.2c0.16,1.2-0.26,2.39-0.46,3.58
		c-0.85,4.49-2.25,8.83-3.67,13.17c-0.68,2.08-1.48,4.26,0.04,6.37c1.75,2.23,4.36,3.77,5.36,6.61c1.16,4.03,5.02,6.07,7,9.49
		c0.31,0.47,0.58,0.95,0.82,1.45c1,2,0.93,4.15,0.9,6.3c-0.15,2.06-0.68,3.93-2.5,5.17c-0.8,0.52-1.58,1.25-2.51,0.22
		c-1-1.11,0.27-2,0.28-3.01c0.15-1.58-0.36-3.13-0.24-4.71c-0.03-1.78-0.9-3.22-1.9-4.6c-2.61-2.81-5.2-5.53-6.71-9.27
		c-1.06-2.6-4.02-3.94-6.39-5.52c-1.26-0.36-2.12-1.43-3.33-1.86c-3.99-2.81-4.23-5.4-0.72-7.43c1.43,0.2,1.76,1.5,2.46,2.45
		c0.52,0.71,1.11,1.5,1.79,0.11c1.38-4.48,3.98-8.83,1.31-13.68c-0.95-2.4-1.17-5.07-2.75-7.24c-1.72-2.66-1.9-5.63-1.75-8.68
		c0.01-0.6,0.08-1.2,0.19-1.79c0.67-2.21,0.72-4.71,2.89-6.22c2.68-0.57,3.38,0.79,2.97,3.13c-0.28,1.59-0.99,3.09-1.02,4.73
		c-0.02,0.96-0.49,2.22,0.54,2.74c1.04,0.52,1.73-0.66,2.5-1.22c0.3-0.22,0.55-0.5,0.83-0.76c2.37-1.78,3-4.32,3.1-7.09
		c0.04-1.34-0.01-2.68,0.29-4c0.48-1.9,0.77-3.8,0.16-5.72c-0.14-0.33-0.26-0.66-0.38-0.99c-0.43-1.32-1.45-2.54-0.72-4.07
		c0.15-1.72,0.12-3.49,0.52-5.15c0.29-1.22,0.79-2.93,2.77-1.59c0.54,1.79,0.95,3.59,0.74,6.08c2.65-2.49,3.13-5.95,5.87-7.56
		c1.53-1.67,2.55-3.56,3.11-5.81c0.85-3.43,2.91-6.01,6.27-7.38c1.08-0.44,2.3-0.76,2.9,0.58c0.55,1.25-0.54,1.74-1.48,2.1
		c-1.93,0.74-3.24,2.04-4.61,4.79c5.44-2.2,10.01-3.97,14.51-5.9c1.76-0.75,1.07-2.27,0.62-3.54c-0.31-0.88-0.53-1.7,0.37-2.33
		c1.22-0.85,1.74,0.28,2.43,0.92C852.96,510.99,852.93,513.58,854.83,514.8z"/>
	<path class="st4" d="M807.58,463.3c0.61,2.75,2.64,5.05,2.42,8.11c-0.08,1.12,1.17,1.83,2.01,2.55c1.08,0.93,3.29,0.43,3.54,2.27
		c0.48,3.49,2.69,6.69,1.62,10.44c-1.55,5.42-6.31,9.38-11.94,9.55c-4.72,0.14-9.44,0.06-14.17,0.07
		c-5.25-0.01-10.49-0.04-15.74-0.04c-6.18-0.01-10.59-2.84-12.58-8.09c-1.95-5.16-0.79-9.24,4-13.65c1.36-1.26,2.38-2.52,3.1-4.38
		c1.33-3.45,3.99-5.68,8.09-5.39c2.15,0.16,4.23,0.19,5.69-1.9c5.38-7.68,17.19-7.51,23.05-0.2
		C806.89,462.94,807.27,463.09,807.58,463.3z"/>
	<path class="st3" d="M935.75,479.75c-4.93,2.39-10.2,1.33-15.34,1.5c-3.34,0.11-6.71-0.15-10.04,0.06
		c-4.73,0.3-7.36-2.29-9.14-6.17c-1.69-3.69,0.08-6.39,2.63-8.86c0.7-0.68,1.26-1.5,1.88-2.26c0.39-4.6,3.01-7.54,7.13-9.13
		c4.18-1.61,7.8-0.34,10.88,2.76c0.61,0.61,1.41,1.65,1.99,1.57c7.93-1.13,8.83,6.31,12.15,10.36
		C940.64,472.91,937.93,476.62,935.75,479.75z"/>
	<path class="st5" d="M847.25,620.02c9.36,1.14,18.6,3.43,28.12,2.95c2.63-0.13,5.24-0.31,7.25-2.33
		c8.48,0.01,16.97,0.01,25.45,0.05c1.28,0.01,3.24-0.47,3.29,1.43c0.05,1.92-1.91,1.53-3.19,1.53c-32.57,0.02-65.13,0.03-97.7,0.01
		c-1.28,0-3.24,0.45-3.25-1.47c-0.01-1.89,1.94-1.49,3.23-1.5c5.24-0.06,10.48-0.06,15.72-0.08c0.75,2.77,2.26,1.5,3.68,0.7
		c0.8-0.3,1.59-0.59,2.33,0.13c0.76,2.21,2.01,1.83,3.36,0.6c0.71-0.65,0.96-1.78,2.08-2.01
		C840.84,619.75,844.04,620.37,847.25,620.02z"/>
	<path class="st6" d="M824.75,610.96c0.24,1.79,0.61,3.6-0.69,5.19c-11.53-4.21-20.89-10.97-26.23-22.42
		c2.73,0.01,5.47,0.02,8.2,0.03c1.54,1.52,1,3.49,1.06,5.3c0.18,4.96,1.36,6.55,6.2,7.92c2.51,0.71,5.06,1.28,7.6,1.91
		C822.36,609.25,823.77,609.7,824.75,610.96z"/>
	<path class="st7" d="M826.29,618.94c0.46-1.7,1.65-3.17,1.65-5.02c0.35-1.2,0.81-2.31,2.37-2.09c1.3,0.18,1.94,0.84,1.36,2.21
		c-0.88,2.31-2.81,3.68-4.62,5.16C826.79,619.12,826.54,619.03,826.29,618.94z"/>
	<path class="st8" d="M802.63,620.67c1.11,0.08,2.53,0.11,2.36,1.6c-0.18,1.65-1.76,1.38-2.95,1.38c-1.12,0-2.53-0.1-2.36-1.59
		C799.86,620.41,801.45,620.75,802.63,620.67z"/>
	<path class="st9" d="M915.06,623.61c-0.98-0.25-1.6-0.65-1.51-1.52c0.08-0.82,0.67-1.27,1.49-1.28c0.95-0.01,1.19,0.65,1.19,1.46
		C916.23,623.18,915.68,623.5,915.06,623.61z"/>
	<path class="st10" d="M788.64,592.32c-0.2,0.65-0.56,1.15-1.26,1.12c-0.85-0.03-1.36-0.58-1.27-1.41c0.07-0.63,0.54-1.12,1.23-1.11
		C788.2,590.94,788.6,591.5,788.64,592.32z"/>
	<path class="st3" d="M914.1,578.73c0.7-1.29,1.39-2.57,2.09-3.86c1.4-1.32,0.89-3.05,0.78-4.57c-0.7-10.16-0.29-20.32-0.22-30.48
		c0.16-3,2.06-4.02,4.74-4.15c2.74-0.14,5.48,0.05,8.22-0.11c3.59-0.21,4.78-1.26,4.85-4.77c0.16-7.22,0.09-14.44,0.03-21.67
		c-0.01-0.62-0.09-1.24-0.24-1.85c-0.19-0.75-0.5-1.46-1.37-1.55c-1.09-0.12-1.53,0.65-1.77,1.54c-0.39,1.46-0.3,2.97-0.31,4.46
		c-0.02,4.61,0.06,9.22-0.03,13.82c-0.1,5.2-1.2,6.3-6.5,6.3c-2.43,0-5.06,0.54-6.98-1.7c-0.94-1.73-0.74-3.62-0.74-5.47
		c-0.02-8.57,0.08-17.14-0.05-25.71c-0.04-2.62-0.17-5.37-3.75-5.76c-3.14,1.45-3,4.31-2.97,7.05c0.11,10.32-0.02,20.65,0.02,30.97
		c0.01,2.22,0.21,4.55-1.87,6.16c-0.6,0.35-1.18,0.49-1.69-0.15c-1.16-2.86-3.84-5.23-2.81-8.79c1.57-0.48,2.61-1.17,2.31-3.18
		c-0.51-3.42,1.22-7.32-2.37-10.05c-0.7-0.53-0.58-1.29,0.07-1.93c2.82-2.77,3.3-9.13,0.8-12.05c-1.35-1.58-2.51-2.82,0.75-3.29
		c1.07-0.15,0.59-1.18,0.69-1.84c0.68-4.22,3.97-7.4,7.62-7.34c3.5,0.06,6.77,3.25,7.37,7.21c0.04,0.24,0.05,0.51,0.01,0.75
		c-0.39,2.17,3.52,0.52,2.66,2.95c-0.53,1.5-2.58,2.11-2.62,3.95c-0.06,2.62-1.14,6.33,0.16,7.66c4.6,4.69-2.4,8.41-0.36,12.81
		c0.8,1.73,0.08,3.73,3.15,3.73c3.07,0,3.05-1.61,3.02-3.79c-0.07-5.37-0.04-10.73-0.02-16.1c0.02-4.56,2.06-7.07,5.79-7.18
		c3.81-0.11,5.96,2.25,6.21,6.77c0.06,1.1-0.52,2.3,1.6,2.56c1.93,0.24,1.21,1.73,0.19,2.72c-3.43,3.35-1.21,7.58-1.74,11.38
		c-0.12,0.87,0.8,0.61,1.36,0.78c1.81,0.53,1.73,1.63,0.51,2.67c-1.58,1.34-1.91,2.97-2,4.96c-0.17,3.74-3.62,6.96-7.39,7.11
		c-2.62,0.11-5.24,0-7.86,0.04c-1.07,0.02-2.33-0.29-2.61,1.36c-0.25,1.48,0.41,1.67,1.75,1.99c1.58,0.38,1.08,1.67,0.12,2.56
		c-3.54,3.3-1.36,7.54-1.87,11.33c-0.23,1.73,3.77,0.24,2.46,2.93c-0.64,1.3-2.43,1.93-2.46,3.62c-0.06,3.49-0.08,6.99,0,10.48
		c0.05,2.16,1.82,1.57,3.08,1.68c1.11,0.1,2.54,0,2.5,1.53c-0.04,1.51-1.46,1.44-2.57,1.46
		C920.58,578.72,917.34,578.72,914.1,578.73z"/>
	<path class="st11" d="M827.82,475.27c-0.01-14.01,11.44-25.49,25.42-25.48c14.41,0.01,25.56,11.38,25.54,26.03
		c-0.02,13.26-11.84,24.93-25.26,24.94C839.19,500.76,827.83,489.5,827.82,475.27z"/>
	<path class="st12" d="M817.17,534.47c0.51,1.27,1.02,2.54,1.53,3.81c-0.89,0.97-1.33,2.22-1.69,2.6c0.21-0.38,0.76-1.47,1.94-2.04
		c1.04,2.07,0.76,4.11-0.1,6.15c-1.26,4.04-3.7,7.73-3.61,12.18c-1.53,1.26-3.12,3.94-4.85,2.91c-1.48-0.87-0.63-3.88-0.37-5.91
		c0.17-1.31,0.84-2.56,1.2-3.86c0.52-1.85-0.38-2.5-2.13-2.33c-0.17-0.61,0.05-0.87,0.68-0.77c2.66-1.51,1.96-4.55,3.08-6.76
		C814.57,538.65,815.15,536.04,817.17,534.47z"/>
	<path class="st13" d="M903.51,528.44c1,2.76,2,5.52,3,8.29c-0.25,0.37-0.52,0.38-0.8,0.03c-1.42-0.9-2.42-2.59-4.44-2.34
		c-0.91-1.77-1.57-3.65-2.6-5.38c-2.21-3.74-4.86-6.69-9.69-6.44c-0.77,0.04-1.45-0.32-2.03-0.84c-1.46-0.37-2.15,0.58-2.78,1.63
		c-1.31-0.46-2.67-0.71-4.06-0.75c-0.73-0.45-1.42-1.16-2.21-1.31c-3.02-0.58-2.8-2.12-1.42-4.13c0.24,1.74,1.56,1.57,2.79,1.56
		c2.81-0.02,5.62-0.04,8.43-0.07c0.72-0.61,1.57-0.83,2.49-0.82c0.7-0.01,1.4,0.04,2.09,0.19c0.34,0.08,0.65,0.2,0.96,0.36
		c0.44,0.26,0.83,0.57,1.22,0.89c1.71,1.4,4.48,1.37,5.32,3.94C900.78,525.15,901.67,527.13,903.51,528.44z"/>
	<path class="st14" d="M890.84,518.7c-1.05-0.01-2.09-0.01-3.14-0.02c0.03-1.24-0.08-2.51,0.13-3.72c0.55-3.22,2.48-5.07,5.8-5.2
		c3.23-0.13,5.84,2.05,6.09,5.28c0.21,2.72,0.05,5.46,0.06,8.2c-1.38-2.25-4.81-1.2-6-3.74c0.54-0.76,1.98-0.58,1.99-1.92
		c0.01-1.39,0.07-2.91-1.57-3.35c-1.59-0.43-2.13,0.82-2.41,2.12C891.6,517.19,891.47,518.04,890.84,518.7z"/>
	<path class="st15" d="M827.08,526.24c-1.7,3.32-3.48,6.6-6.26,10.18c-0.85-3.44-0.36-6.09-0.35-8.7c0.94,1.48,2.02,1.08,3.03,0.15
		C824.52,526.91,825.53,526.01,827.08,526.24z"/>
	<path class="st16" d="M854.83,514.8c-3.58-0.03-2.81-3.14-3.64-5.13c1.38-1.03-0.31-4.29,2.16-3.97c2.47,0.32,1.21,3.01,1.42,4.68
		C854.95,511.83,854.82,513.33,854.83,514.8z"/>
	<path class="st17" d="M895.91,604.85c1.13-3.19,1.5-6.76,4.61-8.92C901.9,601.31,900.77,603.51,895.91,604.85z"/>
	<path class="st18" d="M898.42,607.24c-1.84,2.47-1.84,2.47-4.9,3.54c-0.19-1.45,0.6-2.49,1.2-3.59
		C895.96,607.2,897.19,607.22,898.42,607.24z"/>
	<path class="st19" d="M929.68,575.93c0.71-0.01,1.19,0.43,1.3,1.03c0.15,0.82-0.34,1.39-1.17,1.49c-0.71,0.09-1.19-0.42-1.31-1.01
		C928.35,576.62,928.86,576.11,929.68,575.93z"/>
	<path class="st20" d="M896.76,540.61c5.84,3.19,6.94,8.96,8.08,14.74c1.13,5.72,2.24,11.44,3.54,17.12c0.7,3.04,0.55,5.27-2.9,6.56
		c-2.14,0.8-3.32,2.84-4.22,5.01c-3.26,7.81-6.66,15.56-9.9,23.38c-0.95,2.3-2.46,3.73-4.89,4.07c-2.58,0.36-5.17,0.59-7.76,0.88
		c-2.81-0.46-5.56-0.06-8.28,0.64c-1.81,0.47-3.6,0.87-5.19-0.59c0.64-0.86,0.93-1.8,0.65-2.86c2.57-1.8,5.58-1.72,8.5-1.93
		c5.14-0.38,10.23-1.21,15.37-1.6c0.45-0.36-0.07-0.95,0.15-0.5c0.07,0.13,0,0.26-0.2,0.29c-3.5,0.51-7,0.95-10.29-0.92
		c1.13-1.4,2.27-2.77,3.93-3.58c0.85,0.16,1.7-0.08,2.56,0.12c3.13,0.73,5.62,0.59,5.81-3.62c0.07-1.61,1.37-2.84,2.47-4.01
		c1.02-1.09,2.03-2.17,1.83-3.83c0.13-0.48,0.27-0.95,0.39-1.43c0.31-1.27,1.19-2.99-0.52-3.53c-1.73-0.55-1.36,1.64-2.03,2.53
		c-1.08,1.45-1.58,3.37-3.8,4.35c0.75-4.1,1.45-7.93,2.15-11.75c2.75,1.61,2.62-0.64,2.99-2.23c1.14-0.95,2.27-1.92,3.77-2.26
		c0.97,0.5,0.57,1.86,1.54,2.44c0.97-1.2,0.25-2.67,0.68-3.93c0.55-0.64,1.31-0.64,2.03-0.59c1.85,0.11,3.03-0.71,3.65-2.44
		c0.23-0.66,0.12-1.22-0.37-1.67c-1.76-1.6-2.31,1.37-3.75,1c-0.78-0.99-0.73-2.13-0.34-3.17c2.81-7.39,0.33-13.44-4.68-18.88
		c-0.58-0.81-0.96-1.7-1.15-2.68C896.6,544.02,895.27,542.27,896.76,540.61z"/>
	<path class="st21" d="M888.41,570.3c1.85-1.21,3.86-2.23,5.5-3.68c1.14-1.01,2.38-2.85,0.6-4.11c-1.79-1.27-2,0.95-2.69,1.96
		c-0.34,0.5-0.79,0.96-1.82,0.81c0-4,0-8.03,0-12.07c3.69,0.96,6.81,4.46,7.13,7.96c0.1,1.1-0.25,2.24,0.28,3.3
		c0.06,0.99,0.12,1.99,0.18,2.98c0.26,0.78-0.15,1.35-0.6,1.91c-2.12,1.39-2.34,4.06-3.89,5.84c-4.61,1.96-3.97,6.62-5.28,10.28
		c-1.12,0.92-0.62,3.47-3.08,3.03c-0.75-0.52-1.5-0.93-2.29-0.06c0.73,5.55-3.13,7.22-7.29,8.67c-2.72,0.95-5.48,1.72-8.3,2.24
		c-1.2,0.22-2.77,0.85-3.16-1.24c1.4-2.36,3.69-3.54,6.05-4.67c3.45-1.65,6.8-3.5,10.29-5.07c2.02-0.91,2.86-2.19,2.41-4.33
		c-0.66-1.55,0.18-2.77,1.21-3.58C886.99,577.83,888.64,574.53,888.41,570.3z"/>
	<path class="st22" d="M826.97,607.25c-0.18-0.3-0.36-0.59-0.54-0.89c-1.18-4.02-5-6.16-6.89-9.67c-1.11-2.52-3.47-3.93-5.23-5.87
		c-0.84-1.29-0.63-2.62,0.05-3.85c2.84-5.14,2.87-10.8,3.07-16.43c-0.37-1.28,0.58-2.34,0.59-3.54c0.01-2.1-0.71-3.12-2.84-1.68
		c-1.25-0.33-1.55-1.31-1.67-2.42c0.55-0.98,1.33-1.7,2.36-2.14c2.61,1.33,1.87-1.66,2.96-2.29c2.22-2.03,2.07-4.99,2.95-7.55
		c1.41-1.14,2.39-2.73,3.93-3.72c1.08-0.69,2.13-1.75,3.58-0.74c0.49,0.71,0.86,1.46,0.63,2.36c-0.78,1.61-1.65,3.13-3.57,3.63
		c-2.41-0.9-2.32,0.7-2.28,2.27c-1.18,3.37-2.16,6.79-2.39,10.38c-1.5,8.14-2.96,16.28,0.57,24.31c0.25,0.57,0.32,1.19-0.15,1.76
		c-1.51,0.19-1.65-1.17-2.25-2.02c-0.43-0.6-0.88-1.29-1.78-0.88c-0.81,0.38-0.79,1.18-0.79,1.93c-0.01,2.26,1.59,3.31,3.33,4.03
		c3.2,1.32,6.47,2.48,9.73,3.63c1.31,0.46,2.28,1.01,1.85,2.62c-2.4,0.96-3.84-0.95-5.43-1.71c1.78,1.98,4.19,3.9,3.69,7.32
		C829.56,607.3,828.44,607.78,826.97,607.25z"/>
	<path class="st23" d="M897.5,545.74c0.27,0.74,0.54,1.48,0.82,2.22c1.01,2.16,2.5,4.26,0.75,6.72c-0.26,0.51-0.52,1.02-0.79,1.53
		c-3.67-0.96-6.8-4.43-6.75-7.5c0.9-1.38,4.4-0.35,3.53-2.77c-0.82-2.27-3.19-0.91-4.73-0.06c-2.09,1.15-2.84,0.25-3.44-1.63
		c-0.56-1.75-0.71-3.37,0.34-4.96c0.5-0.75,0.96-1.62,0.04-2.29c-0.95-0.69-1.9-0.27-2.61,0.55c-0.91,1.05-1.54,2.23-1.35,3.69
		c-1.56,0.61-2.27-0.46-2.98-1.52c-0.03-0.98-0.17-1.96-0.08-2.92c0.23-2.43-0.22-4.15-3.25-3.83c-1.16,0.12-2.15-0.35-2.73-1.45
		c0.36-2.53,0.57-2.62,3.9-1.64c4.17-0.07,8.56-0.77,11.17,3.78C891.72,537.91,895.25,541.4,897.5,545.74z"/>
	<path class="st24" d="M865.26,612.4c3.37,0.52,6.6-1.08,9.96-0.72c1.19,0.13,2.51-0.44,3.51,0.67c-4.7,0.52-9.44,0.83-12.4,5.46
		c-1.09,1.7-3,1.49-4.77,1.21c-5.88-0.92-11.74-1.93-17.64-2.73c-4.89-0.66-9.19,0.3-11.72,5.15c-0.78-0.04-1.55-0.09-2.33-0.13
		c2.03-2.3,3.28-5.5,6.92-5.91c4.76-0.71,9.48-1.57,14.11-2.94c1.54-0.46,3.14-0.69,4.72-0.08
		C858.82,613.08,862.04,613.72,865.26,612.4z"/>
	<path class="st25" d="M861,551.04c4-1.46,8.19-2.51,11.55-5.36c3.57-1.63,3.6-1.7,1.54-4.42c-1.02-0.16-1.86,0.29-2.66,0.83
		c-4.24,0.95-8.51,1.25-12.82,0.56c-0.52,0.02-1.03,0.05-1.55,0.07c-0.87,0.07-1.69,0-2.27-0.76c0.06-2,0.11-4,0.17-5.99
		c2.4,1.77,5.11,2.28,8.03,1.96c4.52-0.5,9.15-0.1,13.51-1.79c0.93,0.34,0.8,1.15,0.8,1.87c0.02,6.23,0.02,12.46,0.02,18.69
		c0,1.54,0.18,3.37-2.29,1.8c1.36-8.98,1.3-9-7.64-7.27C865.27,551.62,863.07,552.66,861,551.04z"/>
	<path class="st26" d="M845.67,544.24c0.57,2.53,3.26,4.41,2.24,7.42c-4.11,1.95-8.81,2.54-12.57,5.37
		c-0.57,0.43-1.13-0.17-1.34-0.85c-0.29-2.07-0.58-4.15-0.92-6.61c2.86,0.5,5.52,1.61,8.04-0.02c0.96-0.62,2.09-1.3,1.54-2.62
		c-0.65-1.56-1.7-0.84-2.72-0.21c-0.6,0.37-1.37,0.59-2.08,0.63c-1.27,0.09-2.92-0.13-3.35-1.19c-0.5-1.23,1.22-1.55,2.07-2.18
		c1.3-0.96,2.62-1.89,3.93-2.83C844.2,540.39,844.8,540.75,845.67,544.24z"/>
	<path class="st27" d="M869.92,522.38c2.25,0.54,4.54,0.96,6.74,1.66c1.49,0.47,2.58,0.26,3.49-0.97c1.52,0.52,2.69,1.3,2.39,3.19
		c-1.71,0.28-3.41,0.56-5.12,0.83c-5.49,1.23-10.88,3.22-16.66,2.18c-2.78-0.55-5.56-1.1-8.84-1.74c2.76-3.7,5.96-2.81,9.13-1.96
		c0.79,0.21,1.58,1.05,2.38,0.19c0.84-0.91,0.51-1.81-0.31-2.59c0.18-1.61,1.42-1.51,2.46-1.34
		C867.02,522.06,868.51,521.96,869.92,522.38z"/>
	<path class="st28" d="M863.17,593.07c-2.46,4.82-6.73,8.18-10.02,12.33c-0.74,0.94-1.36,0.61-2.13-0.08
		c-1.48-1.32-3.06-2.53-4.97-4.1c4.1-2.09,7.13-3.99,9.32-6.92c0.84-1.13,2.25-2.34,0.28-3.74c1.3-2.63,3.31-1.11,4.99-0.71
		C862.15,590.22,863.83,590.83,863.17,593.07z"/>
	<path class="st29" d="M876.48,536.13c0.19,1.68-0.68,2.18-2.21,2.13c-4.98-0.18-9.89,0.9-14.89,0.84
		c-2.58-0.03-3.83-0.84-4.43-3.13c-0.09-0.49-0.19-0.98-0.28-1.47c1.77-1.75,4-1.78,6.27-1.65c2.71-0.17,5.23,1.75,8.02,0.69
		c0.99-0.06,2.02-0.69,2.93,0.23C873.24,534.92,874.76,535.72,876.48,536.13z"/>
	<path class="st30" d="M869.92,522.38c-2.24,0.54-4.68-0.67-6.8,0.79c-7.12-2.58-11.06-1.69-14.15,3.2
		c-4.6,0.46-9.09,1.98-13.79,1.48c-1.86-1.21-2.74-0.51-2.83,1.51c-0.09,1.96-0.1,3.92-0.14,5.89c-1.03,0.01-1.21-0.78-1.45-1.52
		c-0.21-1.81-0.2-3.66-0.87-5.4c0.74-1.68,1.31-3.49,3.23-4.29c6.11-1.42,12.37-2.04,18.49-3.4c2.99-0.67,6-1.24,9.09-1.01
		C863.77,520.54,866.85,521.46,869.92,522.38z"/>
	<path class="st31" d="M834.56,567.42c2.68-1.15,5.4-2.23,7.34-4.57c1.8-0.93,2.44-4.04,5.36-2.86c0.48,3.18-0.55,5.69-2.99,7.84
		c-2.57,2.26-4.92,4.78-7.37,7.19C832.61,573.43,831.58,570.07,834.56,567.42z"/>
	<path class="st29" d="M861,551.04c3.89-0.03,7.6-1.09,11.32-2.05c2.87-0.74,4.87-0.3,4.2,3.25c-0.4,2.09,1.59,4.81-1.5,6.24
		c-1.92-0.4-2.82-1.64-3.18-3.52c-0.36-1.86-1.29-2.63-2.94-1.01c-0.48,0.79,0.18,2.12-1.03,2.5c-1.39,0.43-1.2-1.2-1.93-1.67
		c-0.55-0.19-1.22-0.69-1.63-0.53C860.76,555.63,860.64,553.6,861,551.04z"/>
	<path class="st22" d="M863.17,593.07c-1.72-3.22-4.54-3.09-7.52-2.49c-0.3,0.01-0.61,0.01-0.91,0.02
		c-3.52-1.12-6.99,0.54-10.49,0.17c-0.77-0.08-1.54-0.16-2.31-0.24c-1.99-0.14-4.29,0.19-4.36-2.87c5.77-0.7,11.53-1.4,17.3-2.11
		c3.17,1.2,7.03,0.13,9.72,2.93C864.12,590.01,863.65,591.54,863.17,593.07z"/>
	<path class="st32" d="M880.29,554.72c0.01-2.5,0.01-5,0.02-7.51c2.13-0.14,2.61,1.62,3.27,3c1.73,3.57,1.94,7.42,2.1,11.61
		c0.15-2.65-0.52-4.97-0.43-7.3c0.06-1.56-0.31-3.27,1.17-4.48c1.33,5.39,0.71,10.88,0.35,16.28c-0.18,2.74-3.78,2.73-5.79,4.03
		c-0.66-0.56-0.78-1.34-0.86-2.14c-0.02-1.15,0.06-2.27,0.92-3.16c1.75-1.37,0.33-2.89,0.16-4.32
		C880.96,558.73,881.17,556.64,880.29,554.72z"/>
	<path class="st33" d="M848.73,527.01c-2.58,5.11-7.19,8.36-11.18,12.16c-1.11,1.06-1.36-0.34-1.65-1.07
		c-0.94-2.39-0.88-4.87-0.58-7.36C839.38,528.04,843.67,526.16,848.73,527.01z"/>
	<path class="st34" d="M855.66,573.42c1.3-4.17,3.43-7.97,5.25-11.91c3.65-1.07,7.98,0.29,9.75,3.06c-1.46,1.14-2.9,2.29-4.38,3.4
		c-0.36,0.27-0.82,0.39-1.25,0.59c-0.68-1.9,2.75-4.47-0.05-5.17c-2.73-0.67-2.7,2.97-3.2,4.86c-0.56,2.1-0.26,4.42-0.33,6.65
		C858.99,576.46,857.19,575.45,855.66,573.42z"/>
	<path class="st35" d="M863.71,598.11c0.48,0.75,1.17,0.84,1.96,0.62c2.75-0.75,5.52-1.42,8.23-2.27c4.11-1.29,8.3-2.58,8.56-8.02
		c-0.1,2.39-0.11,4.76,1.5,6.78c-4.05,4.32-9.56,5.41-14.97,6.65c-1.19,0.27-2.45,0.23-3.61,0.71c-1.5,0.14-3.5,0.33-4-1.03
		C860.88,600.21,862.47,598.98,863.71,598.11z"/>
	<path class="st36" d="M860.94,532.85c-2.11,0.47-4.02,1.7-6.27,1.65c-1.28-0.11-2.41,0.08-2.9,1.5c-0.89,1.08-2.05,1.73-3.8,2.31
		c1.69-0.27,2.9-0.31,3.86,0.68c-0.06,1.04,0.24,2.17-0.72,3c-0.81,0.61-1.62,0.66-2.44,0.01c-3.08-2.03-2.74,0.5-3,2.24
		c-0.88-2.44-2.93-2.91-5.17-3.06c2.3-2.45,4.59-4.89,6.89-7.33c2.47-0.76,4.63-2.51,7.4-2.35
		C856.97,531.37,858.97,532.03,860.94,532.85z"/>
	<path class="st37" d="M821.68,565.1c-1.23-3.92-0.52-7.4,2.39-10.38c1.63,2.02,3.13,4.14,6.06,4.49c2.53,0.3,1.5,2.56,1.64,3.88
		c0.17,1.68-1.51,1.1-2.52,1.23C826.73,564.66,824.06,563.49,821.68,565.1z"/>
	<path class="st38" d="M848.76,583.13c-3.16,0.99-6.42,0.75-9.66,0.78c-1.78-1.77-1.82-3.75-0.73-5.88
		c2.44-3.58,5.58-3.14,8.92-1.55C848.55,578.53,849,580.76,848.76,583.13z"/>
	<path class="st39" d="M850.17,565.05c0.08-1.19,0.16-2.39,0.24-3.58c1.06-3.8,3.28-4.26,7.4-1.51c-1.21,4.38-3.66,8.24-5.25,12.46
		c-0.63,1.67-1.72,1.41-2.95,0.93C847.22,570.41,849.86,567.81,850.17,565.05z"/>
	<path class="st32" d="M888.41,570.3c1.58,3.5,0.99,6.37-2.11,8.89c-1.57,1.28-3.5,2.5-3.84,4.85c-0.69-2.83-1.38-5.67-2.08-8.5
		c-0.35-1.41,0.51-2.02,1.6-2.49C884.13,572.13,886.27,571.21,888.41,570.3z"/>
	<path class="st27" d="M844.24,590.76c3.48-0.96,6.95-3.16,10.49-0.17c-2.44,2.37-4.3,5.48-7.75,6.6c-1.12,0.37-2.49,1.62-3.61-0.07
		c-0.9-1.36-1.11-2.75,0.21-3.99C844.31,592.45,844.39,591.65,844.24,590.76z"/>
	<path class="st40" d="M857.8,559.96c-1.06-0.22-2.11-0.44-3.17-0.67c-2.02-0.45-3.53,0.07-4.23,2.18c0.5-4.02,0.21-8.12,1.34-12.07
		c1.75-0.09,3.5-1.19,5.24,0.04c1.08,2.13,1.13,4.49,1.49,6.79c-1.19,0.4-2-0.91-3.15-0.71c1.2,0.13,2.14,0.84,3.14,1.41
		C858.53,558,858.88,559.14,857.8,559.96z"/>
	<path class="st41" d="M899.06,554.68c-0.25-2.24-0.5-4.48-0.75-6.72c5.04,5.25,8.07,11.04,5.26,18.54
		c-0.47,1.24-0.55,2.63-0.81,3.95c-3.75-4.04-2.36-8.69-1.45-13.22C901.73,555.16,902.12,553.51,899.06,554.68z"/>
	<path class="st33" d="M881,568.25c0,0.7-0.01,1.41-0.01,2.11c-2.18,1.04-4.54,1.97-3.55,5.18c0.62,1.88-0.05,3.21-1.93,3.58
		c-1.47,0.29-3.39,1.37-4.18-1.15c0.52-1.45,1.57-2.82,0.69-4.48c0.29-3.38,3.8-5,4.5-8.24c0.18-0.82,1.5-0.4,2.3,0.05
		C879.97,565.98,880.36,567.2,881,568.25z"/>
	<path class="st42" d="M834,556.18c0.71,0.49,1.28,0.43,1.95-0.2c3.35-3.17,7.58-3.96,11.96-4.32c0.11,1.59,0.45,3.2-0.47,4.68
		c-0.16-0.04-0.31-0.07-0.47-0.11c-1.73-0.84-3.41,0.12-5.12,0.16c-1.06,0.38-1.27,1.49-1.92,2.21c-2.07,0.46-1.98,2.21-2.23,3.75
		c-2.11,1.84-3.15,1.5-3.17-1.44C834.52,559.34,834.19,557.76,834,556.18z"/>
	<path class="st42" d="M881,568.25c-0.56-0.46-1.18-0.88-1.68-1.4c-1.67-1.74-2.56-2.11-2.9,0.96c-0.28,2.57-3.34,3.45-4.4,5.69
		c-1.48-0.51-2.18,0.55-2.96,1.46c-1.25,1.09-2.39,2.51-4.37,1.54c-0.01-1.03-0.02-2.05-0.03-3.08c2.83-2.42,6.58-3.63,8.88-6.74
		c2.01-1.49,4.01-2.98,6.02-4.47c0.84,0.91,2.46,1.26,2.21,2.98C880.68,566,881.16,567.21,881,568.25z"/>
	<path class="st43" d="M896.03,589.95c1.59,1.69,0.48,2.94-0.74,4.07c-1.9,1.75-3.27,3.69-3.03,6.44c0.14,1.55-0.59,2.25-2.18,2.23
		c-2.34-0.02-4.7,0.14-6.72-1.39C887.65,597.58,892.77,594.8,896.03,589.95z"/>
	<path class="st44" d="M823.38,580.96c-1.53-4.19-1.42-4.33,2.8-5c1.06-0.17,2.05-0.72,3.08-1.1c2.13,1.53,3,3.99,4.44,6.03
		c-0.43,2.81-0.86,5.61-1.29,8.42c-1.13-0.42-0.65-2.38-2.25-2.36c-0.16-1.28-0.03-2.62-0.85-3.75
		C828.49,579.42,826.02,579.96,823.38,580.96z"/>
	<path class="st45" d="M870.65,564.57c-2.97-1.92-6.35-2.52-9.75-3.06c0.33-1.33,1.33-1.89,2.54-2.28c2.18-0.71,3.06-2.19,2.49-4.45
		c1.6,1.93,2.32,0.67,2.96-0.83c-0.17,3.83,1.63,6.38,5.3,7.66C873.22,563.17,872.12,564.09,870.65,564.57z"/>
	<path class="st46" d="M879.44,604.87c3.58,0.02,7.17-0.02,11.45,1.37c-8.63,2.49-16.91,2.17-24.98,3.3
		c-0.2-0.02-0.4-0.07-0.59-0.13c0.56-3.91,3.9-2.12,5.98-2.91C874.11,606.42,877.05,607.02,879.44,604.87z"/>
	<path class="st34" d="M858.61,542.65c4.24-0.82,8.5-1.45,12.82-0.56c-0.88,1.23-2.02,2.19-3.32,2.94
		c-1.96,1.12-4.01,2.09-6.28,2.18C858.56,547.34,860.36,543.71,858.61,542.65z"/>
	<path class="st47" d="M886.42,550.05c-0.05,1.99-0.11,3.98-0.13,5.97c-0.02,1.99-0.01,3.98-0.01,6.55
		c-1.87-2.57-1.59-5.18-2.22-7.49c-0.78-2.87-1.25-5.84-3.75-7.86c0.01-1.48,0.02-2.97,0.02-4.45c2.3-0.34,2.72,1.63,3.65,2.97
		C884.8,547.18,885.61,548.61,886.42,550.05z"/>
	<path class="st48" d="M829.29,546.46c-1.97,0.26-3.28,1.58-4.71,2.79c-0.79,0.67-1.07,2.48-2.79,1.67
		c-0.09-3.26,0.26-6.48,0.9-9.67c0.79-0.8,1.54-1.75,2.81-0.76C825.74,543.13,829.39,543.6,829.29,546.46z"/>
	<path class="st49" d="M848.66,607.91c-2.3,1.82-5.18,2.15-7.85,2.92c-5.65,1.63-5.68,1.53-5.39-4.43
		C840.11,604.46,844.39,606.18,848.66,607.91z"/>
	<path class="st50" d="M834.56,567.42c-2.87,3.65,0.66,5.34,2.33,7.6c-0.72,0.75-1.45,1.5-2.17,2.24c-2.56-0.03-2.82-2.76-4.5-3.82
		c-0.19-1.43-1.22-1.62-2.39-1.64c1.61-3.73-1.83-3.32-3.54-4.32C827.7,565.85,831.13,567.38,834.56,567.42z"/>
	<path class="st51" d="M823.38,580.96c1.63-0.25,1.92-3.44,4.02-2.14c1.36,0.85,3.06,2.16,1.91,4.38c-1.61-0.25-2.35,0.42-2.2,2.06
		c0.16,1.75-0.12,3.39-1.49,5.16C824.51,587.16,823.5,584.18,823.38,580.96z"/>
	<path class="st52" d="M875.77,586.92c-2.44,1.43-4.9,2.8-8.24,3.83c0.92-3.44,3.08-5.12,5.39-6.7c1.16-0.79,2.96-1.04,2.71-3.08
		c1-0.95,2-0.76,3,0.01c0.04,0.74,0.09,1.47,0.13,2.21C878.35,584.9,877.07,585.92,875.77,586.92z"/>
	<path class="st23" d="M848.66,607.91c-4.47,0.03-8.73-1.82-13.23-1.5c0-1.47,0-2.95,0-4.42c4.01-0.95,7.11,1.38,10.42,2.93
		C846.97,605.74,848.13,606.53,848.66,607.91z"/>
	<path class="st53" d="M860.76,529.27c4.19-0.15,8.14-1.63,12.25-2.16c1.45-0.19,2.94-0.03,4.42-0.02c-0.28,1.07,0,1.99,0.74,2.79
		c-1.32,0.5-3.41-0.83-3.9,1.64c-0.91-0.52-0.38-2.59-2.06-2.15c-1.51,0.39-0.74,1.89-1.02,2.88c-1.17,0.49-1.62-1.49-2.84-0.82
		C865.82,530.7,863.29,529.98,860.76,529.27z"/>
	<path class="st39" d="M851.14,577.1c2.89,1.12,5.6,4.05,8.9,0.84c0.48-0.45,0.94-0.43,1.38,0.06c0.6,2.57-0.23,3.85-3.06,3.84
		c-1.92-0.01-3.84,0.42-5.76,0.65c-1.88,0.12-2.76-1.02-3-2.65C849.44,578.67,849.25,577.25,851.14,577.1z"/>
	<path class="st54" d="M871.3,606.49c-1.76,1.44-4.69,0.51-5.98,2.91c-2.86,0.67-5.69,1.1-8.57,0.02c-1.49-0.56-2.3-1.06-0.61-2.34
		c2.27-0.66,4.73-0.37,6.91-1.42C865.83,605.65,868.62,605.52,871.3,606.49z"/>
	<path class="st55" d="M891.52,548.71c1.22,3.42,4.26,5.22,6.75,7.5c-0.68,2.71-0.76,5.48-0.85,8.25
		c-0.48-5.07-3.45-8.49-7.41-11.27C890.04,551.55,889.37,549.65,891.52,548.71z"/>
	<path class="st56" d="M864.6,588.48c-3.19-1.15-6.87-0.67-9.72-2.93c3.66-0.83,7.55-0.64,10.98-2.47c1.04,0.2,2.13-2.33,3.13,0.06
		C867.53,584.92,866.06,586.7,864.6,588.48z"/>
	<path class="st57" d="M855.61,612.38c-6.22,1.35-12.25,3.88-18.83,3.02c4.54-1.45,9.07-2.97,13.64-4.32
		C852.3,610.53,854.04,611.32,855.61,612.38z"/>
	<path class="st58" d="M865.37,602.57c0.88-0.97,2.04-1.21,3.27-1.45c5.45-1.06,10.44-3.32,15.31-5.9c0.29,3.27-3.05,3.42-4.49,5.2
		c-3.66,2.42-7.87,1.98-11.94,2.25C866.81,602.63,866.09,602.6,865.37,602.57z"/>
	<path class="st59" d="M848.73,527.01c-4.72,0.35-8.86,2.76-13.41,3.74c-0.04-0.96-0.09-1.93-0.13-2.89
		c4.53-1.09,9.01-2.66,13.79-1.48C848.93,526.6,848.85,526.81,848.73,527.01z"/>
	<path class="st60" d="M826.97,607.25c1.03-0.53,2.07-1.05,3.1-1.58c0.72-0.59,1.45-0.6,2.18-0.02c-0.14,2.8,0.7,5.67-0.6,8.39
		c-1.15-2.94-2.44-1.39-3.73-0.12C827.87,611.66,827.91,609.39,826.97,607.25z"/>
	<path class="st36" d="M868.99,583.14c-1.02-1.26-2.1,0.46-3.13-0.06c1.97-1.54,4.03-2.98,5.46-5.1c2.85,1.23,5.19,1.19,6.11-2.44
		c1.14,1.65,0.33,3.73,1.21,5.44c-1,0-2-0.01-3-0.01C872.7,579.46,871.16,582.26,868.99,583.14z"/>
	<path class="st61" d="M856.99,549.44c-1.74-0.38-3.51,1.92-5.24-0.04c1.01-2.48,2.02-4.96,3.04-7.44c0.83,0.05,1.74-0.16,2.27,0.76
		C855.51,544.95,857.68,547.21,856.99,549.44z"/>
	<path class="st62" d="M825.49,540.49c-0.94,0.25-1.88,0.51-2.81,0.76c-0.2-1.51,0.24-2.78,1.42-3.77c1.34-0.94,2.85-1.16,4.44-1.05
		c1.35-0.01,2.68,0.05,3.76,1.03c0.52,0.93,0.84,1.92,0.76,3.01c-1.31,1.28-2.64,0.61-3.97,0.04
		C827.9,539.8,826.7,539.04,825.49,540.49z"/>
	<path class="st30" d="M845.85,604.91c-3.68-0.26-6.86-2.27-10.42-2.93c0-1.03,0-2.05,0.01-3.08c2.38-1.06,4.11,0.43,5.93,1.53
		C843.12,601.66,844.55,603.21,845.85,604.91z"/>
	<path class="st63" d="M830.16,586.96c3.24-1.58,1.53,1.55,2.25,2.36c-0.03,0.98,0.02,1.97-0.1,2.94c-0.12,0.89,0.56,2.26-0.6,2.57
		c-1.14,0.3-2.46-0.3-3.36-1.12c-1.03-0.95,0.19-1.77,0.52-2.58C829.42,589.77,830.1,588.46,830.16,586.96z"/>
	<path class="st64" d="M832.26,605.65c-0.73,0.01-1.45,0.01-2.18,0.02c-0.68-3.29-3.12-5.5-5.79-8.74c3.24,1.46,5.58,2.51,7.91,3.55
		C832.21,602.2,832.23,603.93,832.26,605.65z"/>
	<path class="st27" d="M824.29,567.5c0.49,0,0.99-0.06,1.48,0c1.3,0.17,3.12-0.71,3.79,0.54c0.78,1.47-1.05,2.52-1.73,3.77
		c-0.98,0.9-2.37,1.53-3.27,0.57C823.27,571.04,824.05,569.16,824.29,567.5z"/>
	<path class="st65" d="M850.17,565.05c-0.19,2.77-0.38,5.53-0.57,8.3c-1.67-0.25-3.34-0.49-5.45-0.81
		C845.81,569.46,848.91,567.95,850.17,565.05z"/>
	<path class="st66" d="M839.76,592.91c-0.21,2.07,0.15,4.07,0.82,6.02c-2.94-0.07-3.91-2.42-5.18-4.44c0.02-1.82-0.54-3.69,0.56-5.4
		C837.93,589.66,838.58,591.55,839.76,592.91z"/>
	<path class="st67" d="M830.21,573.45c2.8-0.26,2.68,2.92,4.5,3.82c-0.34,1.21-0.68,2.42-1.02,3.63c-2.45-1.3-3.51-3.62-4.44-6.03
		C829.58,574.4,829.9,573.92,830.21,573.45z"/>
	<path class="st45" d="M851.14,577.1c-1.81,2.42-0.7,4.05,1.46,5.4c-1.16,0.94-2.52,0.64-3.84,0.63c-1.34-2.03-1.67-4.28-1.47-6.65
		C848.6,576.53,849.98,576.14,851.14,577.1z"/>
	<path class="st68" d="M826.35,552.45c0.9-1.5,2.08-2.72,3.57-3.63c0.27,1.47,0.62,2.92,0.77,4.4c0.09,0.91,0.71,2.17-0.39,2.68
		c-1.08,0.5-1.75-0.66-2.4-1.36C827.31,553.92,826.86,553.16,826.35,552.45z"/>
	<path class="st69" d="M867.53,602.66c3.84-1.5,8-1.27,11.94-2.25C876.12,604.54,871.86,603.79,867.53,602.66z"/>
	<path class="st70" d="M881.77,565.2c-0.73-1-2.4-1.3-2.21-2.98c1.5-2.37,0.21-5.02,0.74-7.49c2.04,2.96,1.66,6.61,2.83,9.84
		C883.59,565.84,882.43,565.38,881.77,565.2z"/>
	<path class="st71" d="M847.25,560c-2.18,0.21-3.16,2.67-5.36,2.86c0.73-1.88,1.33-3.78,0.83-5.84c1.79,1.14,2.75-1.62,4.44-0.94
		c0.1,0.09,0.19,0.17,0.28,0.26C847.38,557.56,847.31,558.78,847.25,560z"/>
	<path class="st72" d="M901.21,574.14c0.22,0.29,0.65,0.58,0.64,0.86c-0.07,1.8,1.24,4.71-1.54,4.84c-2.28,0.11-0.85-2.74-1.33-4.2
		C899.51,574.82,900.23,574.28,901.21,574.14z"/>
	<path class="st73" d="M835.4,594.5c1.73,1.48,3.45,2.96,5.18,4.44c0.26,0.5,0.52,1,0.78,1.5c-2.14,0.11-3.92-1.15-5.93-1.53
		C835.42,597.43,835.41,595.96,835.4,594.5z"/>
	<path class="st51" d="M839.76,592.91c-2.38-0.16-2.49-2.58-3.8-3.82c-0.03-1.13,0.52-1.59,1.62-1.45c0.77,1.99,2.99,1.78,4.36,2.87
		C841.21,591.32,840.48,592.12,839.76,592.91z"/>
	<path class="st74" d="M884.75,588.5c1.03-1.01,2.05-2.02,3.08-3.03c-0.03,2.59,0.21,5.21-1.1,7.75
		C885.36,591.87,884.86,590.27,884.75,588.5z"/>
	<path class="st75" d="M861.42,578.01c-0.46-0.02-0.92-0.04-1.38-0.06c-0.53-1.52-1.5-1.82-3.13-1.73c-2.02,0.11-2.64-1.05-1.25-2.8
		c1.9,0.62,3.54,2.22,5.79,1.48C861.44,575.94,861.43,576.98,861.42,578.01z"/>
	<path class="st76" d="M893.11,575.19c0.7-2.39,0.4-5.36,3.64-6.26c1.13,1.26,0.98,2.54,0.06,3.84
		C895.9,574.05,894.51,574.63,893.11,575.19z"/>
	<path class="st77" d="M873.54,566.69c-1.57,4.08-5.63,4.88-8.88,6.74C867.03,570.4,870.41,568.71,873.54,566.69z"/>
	<path class="st34" d="M854.79,531.5c-2.37,1.1-4.61,2.6-7.4,2.35C849.38,531.55,851.33,529.14,854.79,531.5z"/>
	<path class="st46" d="M895.21,577.89c1.62,2.1,0.23,3.59-1.39,4.29c-1.6,0.7-1.41-1.07-1.59-2.06
		C892.83,578.85,894.12,578.5,895.21,577.89z"/>
	<path class="st78" d="M864.69,576.5c1.46-0.51,2.91-1.03,4.37-1.54c-0.37,2.43-2.3,3.47-3.98,4.89
		C864.21,578.6,864.6,577.53,864.69,576.5z"/>
	<path class="st79" d="M851.83,538.99c-1.79,0-3.58,0-5.37,0c-0.07-0.29-0.14-0.58-0.21-0.87c1.84-0.71,3.68-1.41,5.52-2.12
		C851.79,536.99,851.81,537.99,851.83,538.99z"/>
	<path class="st80" d="M863.05,605.67c-2.09,1.5-4.24,2.73-6.91,1.42C857.79,603.46,860.74,606.1,863.05,605.67z"/>
	<path class="st81" d="M883.99,545.74c-1.22-0.99-2.43-1.98-3.65-2.97c-0.01-1.02-0.01-2.04-0.02-3.05
		c0.99,0.51,1.99,1.02,2.98,1.52C883.53,542.74,883.76,544.24,883.99,545.74z"/>
	<path class="st82" d="M874.08,541.26c2.01-0.25,2.66,0.78,2.47,2.62c-0.31,2.9-2.53,1.51-4,1.8
		C873.5,544.36,875.04,543.25,874.08,541.26z"/>
	<path class="st61" d="M847.16,556.08c-1.42,0.6-2.48,2.87-4.44,0.94c-0.29-0.21-0.57-0.41-0.86-0.61
		C843.59,555.7,845.2,553.04,847.16,556.08z"/>
	<path class="st34" d="M837.71,562.36c-1.84-2.4,0.09-3.59,1.57-4.93c0.22,0.39,0.44,0.79,0.66,1.18
		C839.85,560.25,839.03,561.45,837.71,562.36z"/>
	<path class="st78" d="M858.46,556.93c-2.02-0.33-4.05-0.66-6.53-1.06c2.65-2.01,4.62-1.19,6.54,0.36
		C858.54,556.46,858.54,556.7,858.46,556.93z"/>
	<path class="st26" d="M832.3,537.47c-1.24,0-2.48-0.01-3.72-0.01c-0.74-2.63,0.63-3.56,2.97-3.72c0.22,0.51,0.44,1.01,0.66,1.52
		C832.24,535.99,832.27,536.73,832.3,537.47z"/>
	<path class="st83" d="M838.37,578.03c-0.56,2.06,0.78,3.88,0.73,5.88C836.08,583.33,835.86,581.57,838.37,578.03z"/>
	<path class="st84" d="M896.82,572.76c-0.02-1.28-0.04-2.56-0.06-3.83c0.28-0.49,0.56-0.99,0.85-1.48
		C897.93,569.3,900.72,571.53,896.82,572.76z"/>
	<path class="st85" d="M829.1,540.51c1.32-0.01,2.65-0.02,3.97-0.04c0.63,0.93,0.86,1.74-0.35,2.49c-0.93,0.57-1.36,0.03-1.86-0.52
		C830.26,541.81,829.68,541.16,829.1,540.51z"/>
	<path class="st86" d="M875.77,586.92c0.77-1.43,1.36-3,3-3.72C880.6,586.71,877.26,586.07,875.77,586.92z"/>
	<path class="st87" d="M868.35,531.42c1.51-1.66,2,0.19,2.84,0.82c0.23,0.51,0.47,1.02,0.7,1.53c-0.97-0.21-2.07,1.38-2.93-0.23
		C869.02,532.76,869.05,531.98,868.35,531.42z"/>
	<path class="st88" d="M848.67,542c0.81,0,1.62-0.01,2.44-0.01c-0.01,1.24-0.58,2.27-1.27,3.45
		C848.84,544.39,847.85,543.53,848.67,542z"/>
	<path class="st89" d="M809.77,547.19c-0.23,0.26-0.45,0.52-0.68,0.77c-1.44,1.74-1.32,4.07-2.26,6c-1.48,0.47-2.77,1.43-4.29,1.8
		c-0.74-0.05-1.2-0.56-1.67-1.04c0.14-2.52-1.34-2.93-3.5-3.05c-4.09-0.23-8.26,0.91-12.27-0.7c-0.59-4.41-0.45-8.82-0.1-13.23
		c0.67-1.54,1.04-3.09,0.11-4.68c-0.43-2.48-0.41-4.97-0.05-7.45c0.44-1.32,1.1-2.59,0.89-4.05c0.08-0.96,0.38-1.77,1.41-2.09
		c1.73,0.82,1.48,2.39,1.48,3.87c0,5.09,0,10.18,0,15.27c0.01,7.92-0.65,7.07,7.29,7.11c1.6,0.01,3.24,0.2,4.69-0.77
		c2.15-0.75,1.81-3.06,2.84-4.52c0.96-0.66,1.76,0.64,2.74,0.27c-0.56-1.59-2.91-0.87-3.29-2.63c-0.56-3.11-0.44-6.22-0.11-9.33
		c0.12-0.48,0.21-1.04,0.58-1.35c2.02-1.69,1.05-3-0.47-4.29c-0.52-2.89-0.51-5.78-0.03-8.67c0.65-2.08,2.16-0.58,3.34-0.55
		c-0.49-1.68-2.32-1.06-2.98-2.18c-0.66-2.13,0.76-3.47,1.88-4.93c3.38,0.43,4.52,2.57,4.51,5.72
		C809.8,524.07,809.79,535.63,809.77,547.19z"/>
	<path class="st90" d="M800.87,554.72c0.61,0.01,1.16,0.16,1.47,0.75c1.43,1.52,2.91-0.37,4.35,0.07c0.01,3.04,0.11,6.07,1.76,8.79
		c0.98,2.72,1.4,5.23-2.62,5.94c2.52,3.62,2.32,7.28,1.28,10.99c-0.24,0.85-0.3,2.1-1.77,1.93c-2.95,0.14-2.5,2.05-1.88,3.86
		c0.44,1.29,1.56,2.13,2.59,2.99c0.25,0.14,0.33,0.27,0.24,0.39c-0.09,0.11-0.18,0.17-0.27,0.17c-5.16,0.19-5.17,0.19-5.17-4.79
		C800.85,575.45,800.86,565.09,800.87,554.72z"/>
	<path class="st91" d="M803.85,513.49c0,3.5-0.01,7-0.01,10.49c0.44,1.26-0.33,2.53,0,3.79c0,3.74,0.01,7.48,0.01,11.22
		c0.46,0.5,0.46,1,0,1.49c-0.09,4.31-0.23,4.53-3.01,4.48c0.01-10.69,0.04-21.38,0-32.07c-0.01-3.24,0.88-5.64,4.51-6.1
		c0.44,2.01-1.96,3.2-1.49,5.22C804.3,512.5,804.3,512.99,803.85,513.49z"/>
	<path class="st92" d="M806.02,590.6c0.02-0.19,0.03-0.38,0.03-0.56c1.01,0.45,2.03,0.9,3.04,1.35c1.56,1.87,0.8,4.06,0.82,6.12
		c0.04,4.81,0.79,5.84,5.43,7.01c2.41,0.61,4.83,1.21,7.22,1.93c1.36,1.19,2.02,2.72,2.19,4.5c-3.71-0.97-7.42-1.95-11.13-2.89
		c-6.38-1.62-7.51-3.03-7.55-9.46c-0.01-1.62-0.02-3.23-0.04-4.85C806.03,592.71,806.02,591.66,806.02,590.6z"/>
	<path class="st93" d="M787.36,519.47c-0.26,0.76-0.51,1.52-0.77,2.28c-0.84,0.86-0.8,1.94-0.75,3.02c0,2.98,0,5.95,0,8.93
		c-0.1,1.02-0.1,2.04,0,3.05c-0.42,4.73,0.88,9.55-0.74,14.21c-1.86-1.06-2.25-2.81-2.25-4.76c0-7.81-0.05-15.62,0.02-23.43
		C782.9,519.3,784.13,518.47,787.36,519.47z"/>
	<path class="st89" d="M907.23,537.48c1.38-1.47,1.57-3.24,1.56-5.18c-0.06-11.47,0.01-22.94-0.05-34.41
		c-0.02-2.93,0.79-5.14,3.78-6.09c1.22,1.16,2.23,2.42,1.85,4.28c-0.49,1.03-1.68,1.44-2.33,2.64c1.14,0.48,2.77-1.46,3.41,0.64
		c0.55,2.89,0.5,5.77,0.06,8.66c-3.27,1.89-0.71,3.77,0.04,5.66c0.38,3.11,0.46,6.22-0.03,9.32c-0.36,1.79-2.54,1.19-3.45,2.79
		c1.08,0.2,2.03-1.04,2.93-0.23c0.74,1.59,1.16,3.38,2.76,4.43c3.22,1.47,6.62,0.63,9.93,0.65c2.06,0.01,2.05-1.76,2.05-3.31
		c0-6.35,0.02-12.69-0.01-19.04c-0.01-2.32,0.34-4.54,3.2-4.41c2.59,0.11,2.84,2.26,2.83,4.42c-0.04,7.71,0.01,15.43-0.03,23.14
		c-0.02,3.89-1.47,5.26-5.47,5.3c-3.11,0.03-6.22,0.07-9.33-0.01c-2.17-0.06-3.32,0.75-3.21,3.02c-0.48,0.48-0.94,1.01-1.7,1.05
		c-0.75-0.04-1.37-0.49-2.54-0.95c0.56,1.79,2.07,2.73,2.16,4.27c-0.02,3.61,1.2,7.32-0.95,10.73c-0.25-0.24-0.51-0.48-0.76-0.72
		c-1.78-0.57-3.12-1.39-3.42-3.57C909.94,546.06,907.57,542.03,907.23,537.48z"/>
	<path class="st29" d="M886.94,521.75c7.88-0.06,11.82,2.76,14.35,10.19c0.29,0.85,0.53,1.65-0.03,2.47
		c-1.59,1.54-0.1,2.36,0.78,3.33c2.01,2.25,2.01,2.27,1.99,5.11c-5.28-5.08-10.64-10.21-15.95-15.39
		C886.44,525.88,887.43,523.64,886.94,521.75z"/>
	<path class="st94" d="M916.25,540.49c0.32-0.6,0.87-0.75,1.49-0.76c0.01,10.97,0.04,21.95-0.03,32.92
		c-0.01,0.83,1.09,2.97-1.53,2.22c-0.1-1.99,0.82-4.1-0.66-5.94c-4.27-0.37-4.28-0.37-4.1-5.14c0.08-2.06-0.25-4.21,1.13-6.03
		c1.02-0.76,2.34-1.3,2.17-2.95c0.02-4.02,0.04-8.04,0.05-12.07C914.83,541.72,915.51,541.08,916.25,540.49z"/>
	<path class="st95" d="M907.23,537.48c1.8,4.7,4.06,9.26,4.54,14.36c0.14,1.49,1.81,1.17,2.18,2.26c-1.65-0.08-2.84,1.13-4.33,1.52
		c-2.64-3.05-1.98-7.03-2.96-10.56c1.46-2.97,0.1-5.62-0.96-8.3c0.27-0.01,0.54-0.02,0.8-0.03
		C906.75,536.98,906.99,537.23,907.23,537.48z"/>
	<path class="st96" d="M912.55,557.77c-0.27,3.05,0.48,6.15-0.49,9.17c-0.31,0.98-0.32,1.74,1.13,1.39c0.83-0.2,1.73-0.29,2.32,0.61
		c-1.7-0.18-2.33,0.72-2.31,2.28c-0.7,0.39-0.79,1.36-1.57,1.67c-0.71-3.12-1.46-6.23-2.1-9.36
		C908.98,560.83,910.2,558.98,912.55,557.77z"/>
	<path class="st32" d="M897.5,545.74c-3.43-3.55-6.93-7.06-8.16-12.09c2.48,2.32,4.95,4.63,7.43,6.95
		C897.01,542.32,897.25,544.03,897.5,545.74z"/>
	<path class="st97" d="M906.66,545.05c2.47,3.1,1.61,7.14,2.96,10.55c-0.44,0.42-1.26,1.63-1.45,0.68
		C907.44,552.59,905.11,549.06,906.66,545.05z"/>
	<path class="st38" d="M882.54,526.25c-0.8-1.06-1.59-2.12-2.39-3.19c0-0.15-0.01-0.3-0.04-0.44c1.61-1.13,3.13-1.83,4.05,0.75
		C883.78,524.42,885.02,526.39,882.54,526.25z"/>
	<path class="st98" d="M847.25,620.02c-3.2,1.09-6.41,1.07-9.61,0.01C840.84,618.29,844.04,619.74,847.25,620.02z"/>
	<path class="st99" d="M911.63,572.88c0.4-0.68-0.56-2.63,1.57-1.67c0.16,1.58,0.33,3.15-1.2,4.85
		C911.86,574.79,911.75,573.84,911.63,572.88z"/>
	<path class="st100" d="M822.56,606.46c-4.39,0.53-8.43-0.77-12.11-2.89c-2.27-1.3-1.38-4.08-1.58-6.21
		c-0.19-1.96,0.13-3.98,0.22-5.97c3.39,1.81,6.72,3.69,7.86,7.75C817.85,602.35,820.88,603.87,822.56,606.46z"/>
	<path class="st28" d="M860.7,519.62c-8.74,2.51-17.74,3.57-26.68,4.98c-0.27,0.04-0.6-0.36-0.9-0.56
		c5.24-2.18,10.39-4.62,15.75-6.45C852.97,516.2,856.76,518.81,860.7,519.62z"/>
	<path class="st101" d="M805.34,583.19c1.6-4.21,3.17-8.41-0.68-12.33c-0.9-0.91-0.55-2.55,0.31-2.27c5.29,1.73,2.64-2.64,3.48-4.27
		c1.91,1.94,1.62,4.73,2.71,6.99c0.11,4.99-1.04,9.87-1.43,14.81c-0.56,3.23-2.07,1.22-2.87,0.34
		C806.1,585.62,805.83,584.31,805.34,583.19z"/>
	<path class="st48" d="M817.43,570.54c1.27,5.31,0.92,10.46-1.46,15.41c-0.75,1.56-1.85,2.99-1.66,4.87c-2.52-1.6-1.78-3.88-1.09-6
		C814.76,580.11,816.4,575.41,817.43,570.54z"/>
	<path class="st28" d="M831.55,533.73c-1.38,0.93-2.81,1.82-2.97,3.73c-1.49,0.01-2.98,0.02-4.48,0.03
		c1.66-3.22,3.49-6.33,5.79-9.16C832.89,529.38,831.05,531.92,831.55,533.73z"/>
	<path class="st102" d="M815.24,557.15c-2.47-3.85,1.07-6.62,1.85-9.87c0.21-0.86,1.15-1.54,1.76-2.31c0.06,3,0.01,5.99-0.72,8.92
		C817.74,555.49,816.55,556.37,815.24,557.15z"/>
	<path class="st103" d="M809.74,586.13c-0.83-5.06-0.34-10,1.43-14.81C814.29,576.6,811.1,581.28,809.74,586.13z"/>
	<path class="st104" d="M819.54,596.69c2.98,1.78,4.69,4.73,6.69,7.4c0.44,0.59,1.23,1.43,0.21,2.27
		C824.47,602.9,819.9,601.29,819.54,596.69z"/>
	<path class="st105" d="M813.51,562.91c0.56,0.81,1.12,1.61,1.67,2.42c0,1.62-0.47,3.12-1.3,5.13
		C813.33,567.59,811.03,565.42,813.51,562.91z"/>
	<path class="st106" d="M806.69,555.54c-1.46,0.47-2.97,4.32-4.35-0.07c1.48-0.55,2.28-3.14,4.49-1.5
		C806.79,554.49,806.74,555.02,806.69,555.54z"/>
	<path class="st107" d="M818.95,538.83c-0.38,2.19-2.17,3.34-3.55,4.82c0.42-2.22,0.45-4.66,3.3-5.37
		C818.82,538.44,818.9,538.63,818.95,538.83z"/>
	<path class="st108" d="M818.83,558.47c-0.3,1.55-0.6,3.1-0.91,4.7c-1.51-0.2-1.45-1.59-2.06-2.41
		C816.85,560,817.84,559.24,818.83,558.47z"/>
	<path class="st109" d="M789,493.24c-4.74,0-9.48,0.03-14.22-0.01c-5.02-0.04-9.13-3.38-9.88-7.98c-0.74-4.56,2.15-8.65,7.25-10.25
		c3.39-1.07,3.42-1.09,1.21-3.51c-1.02-1.12-0.08-1.8,0.52-2.42c1.84-1.88,5.61-1.72,7.82,0.11c0.96,0.8,1.58,2.77,3.22,1.83
		c1.76-1.01,0.53-2.31-0.21-3.46c-0.56-0.87-0.19-1.62,0.39-2.38c3.29-4.36,7.83-5.8,12.93-4.78c4.3,0.86,7.12,3.85,8.44,8.11
		c0.38,1.22,0.88,2.47-0.9,3.04c-0.91,0.29-1.65,0.8-1.57,1.82c0.12,1.45,1.47,1.04,2.33,1.31c7.01,2.22,9.56,6.92,7.02,13.01
		c-1.67,3.99-5.06,5.37-8.99,5.51C799.23,493.37,794.11,493.24,789,493.24z"/>
	<path class="st110" d="M919.3,478.25c-3.12,0-6.24,0.04-9.36-0.02c-3.5-0.06-6.11-2.08-6.2-5.2c-0.08-2.81,1.16-4.96,4.28-5.71
		c1.89-0.45,4.68-0.97,1.28-3.58c-0.86-0.66-0.34-1.62,0.1-2.38c1.73-3.04,4.51-4.43,7.81-3.96c2.84,0.4,5.11,1.92,5.07,5.41
		c-0.02,2.13,1.15,2.42,2.58,1.11c1.21-1.1,2.46-1.72,4.05-1.3c0.62,0.16,1.66,0.47,0.65,1.45c-2.15,2.08-0.68,2.47,1.23,3.01
		c3.54,0.99,5.54,3.62,4.87,6.43c-0.81,3.39-3.16,4.85-6.62,4.77C925.79,478.2,922.55,478.26,919.3,478.25z"/>
	<path class="st111" d="M917.77,529.98c-3.55,0.2-2.95-2.38-3.02-4.51c-0.45-0.49-0.45-0.98,0-1.47c0.01-3.74,0.01-7.49,0.02-11.23
		c0.32-1.26-0.42-2.51-0.01-3.77c0-3.5,0-7.01,0-10.51c-0.65-0.6-1.26-1.22-0.75-2.22c-0.49-1.49-0.99-2.98-1.48-4.47
		c3.81,0.03,5.25,2.17,5.24,5.73C917.75,508.34,917.77,519.16,917.77,529.98z"/>
	<path class="st112" d="M846.53,454.26c10.32-4.17,22.94,1.38,27.39,12.05c3.62,8.68,1.66,18.69-4.94,25.13
		c-6.43,6.27-16.45,8-24.92,4.29c-8.33-3.64-13.63-12.13-13.19-21.54c0.16-3.32,0.76-6.65,2.94-9.41c1.25,1.19,0.89,2.77,0.98,4.23
		c0.43,6.53,5.26,11.48,11.71,11.96c6.24,0.46,12.29-4.26,13.56-10.56c1.2-5.99-2.69-12.4-8.67-14.44
		C849.77,455.41,847.87,455.62,846.53,454.26z"/>
	<path class="st113" d="M846.53,454.26c8.58-0.22,14.54,5.99,14.9,14.26c0.3,7.07-7.14,13.71-14.58,13.49
		c-7.31-0.22-13-6.11-13.03-13.5c-0.01-1.24,0-2.49-0.01-3.73C836.33,459.19,840.47,455.57,846.53,454.26z"/>
	<path class="st90" d="M890.84,518.7c-0.02-0.5-0.01-1-0.05-1.49c-0.15-1.87,0.19-3.55,2.16-4.29c1.15-0.43,2.2-0.03,3.01,0.93
		c1.39,1.64,1.04,3.64,0.65,5.36c-0.39,1.75-1.87-0.04-2.83,0.3c-0.25-0.26-0.51-0.51-0.76-0.77c0.25-0.26,0.45-0.56,0.56-0.91
		c-0.21,0.29-0.32,0.64-0.53,0.93C892.31,518.74,891.58,518.72,890.84,518.7z"/>
	<path class="st114" d="M803.84,540.48c0-0.5,0-0.99,0-1.49c0.89-0.47,1.82-1,2.63,0.04c0.68,0.87,2.43,1.48,1.26,2.95
		c-1.09,1.37-1.88-0.03-2.7-0.66C804.65,541.02,804.24,540.76,803.84,540.48z"/>
	<path class="st106" d="M803.83,527.77c-2.57-1.26-0.64-2.53,0-3.79c0.85-0.37,1.76-1.06,2.52,0.06c0.77,1.13-0.24,1.74-0.87,2.39
		C805,526.93,804.39,527.33,803.83,527.77z"/>
	<path class="st115" d="M803.85,513.49c0-0.49,0-0.99,0-1.48c0.89-0.47,1.82-0.99,2.63,0.05c0.68,0.87,2.43,1.48,1.26,2.95
		c-1.09,1.37-1.88-0.04-2.7-0.66C804.65,514.04,804.24,513.77,803.85,513.49z"/>
	<path class="st116" d="M785.84,524.77c-2.29-1.64-1.53-2.52,0.75-3.02C787.41,523.02,787.4,524.09,785.84,524.77z"/>
	<path class="st117" d="M794.59,547.45c0.89-0.01,1.37,0.43,1.48,1.03c0.15,0.82-0.34,1.39-1.17,1.49
		c-0.71,0.09-1.18-0.42-1.31-1.01C793.41,548.12,794.02,547.69,794.59,547.45z"/>
	<path class="st116" d="M785.84,536.76c-1.79-1.02-1.79-2.04,0-3.05C787.65,534.72,787.65,535.74,785.84,536.76z"/>
	<path class="st115" d="M914.75,524c0,0.49,0,0.98,0,1.47c-0.11,0.06-0.21,0.12-0.33,0.17c-1.16,0.44-1.6,2.51-3.32,1.61
		c-0.73-0.38-0.87-1.19-0.26-1.88C911.89,524.21,912.81,522.62,914.75,524z"/>
	<path class="st115" d="M916.25,540.49c0.03,1.09-0.52,1.81-1.48,2.26c-1.15-1.06-3.69-1.94-2.3-3.72
		C913.99,537.08,914.83,540.27,916.25,540.49z"/>
	<path class="st115" d="M914.01,496.27c0.25,0.74,0.5,1.48,0.75,2.22c-1.36,0.31-1.76,2.62-3.62,1.79
		c-0.33-0.14-0.71-0.92-0.59-1.17C911.24,497.64,912.21,496.42,914.01,496.27z"/>
	<path class="st115" d="M914.76,509c0.65,1.25,2.57,2.51,0.01,3.77c-0.58-0.46-1.21-0.88-1.73-1.41c-0.59-0.59-1.49-1.17-0.87-2.2
		C912.91,507.92,913.86,508.58,914.76,509z"/>
	<path class="st13" d="M893.05,518.75c-0.46-0.99-1.1-2.04,0.4-2.68c0.64-0.27,1.27,0.12,1.42,0.72c0.4,1.55-0.74,1.76-1.86,1.93
		C893.02,518.73,893.05,518.75,893.05,518.75z"/>
</g>
</svg>
